<svg xmlns="http://www.w3.org/2000/svg" width="3072" height="3072" viewBox="0 0 3072 3072"><defs><clipPath id="a" clipPathUnits="userSpaceOnUse"><path d="M-212.859 1241.883h2340v-2340h-2340Z"/></clipPath><clipPath id="b" clipPathUnits="userSpaceOnUse"><path d="M-956.492 460.282h2340v-2340h-2340Z"/></clipPath><clipPath id="c" clipPathUnits="userSpaceOnUse"><path d="M-826.41 1051.211h2340v-2340h-2340Z"/></clipPath><clipPath id="d" clipPathUnits="userSpaceOnUse"><path d="M-1877.893 926.571h2340v-2340h-2340Z"/></clipPath><clipPath id="e" clipPathUnits="userSpaceOnUse"><path d="M-2267.72 1323.757h2340v-2340h-2340Z"/></clipPath><clipPath id="f" clipPathUnits="userSpaceOnUse"><path d="M-1164.432 933.83h2340v-2340h-2340Z"/></clipPath><clipPath id="g" clipPathUnits="userSpaceOnUse"><path d="M-1671.281 1376.577h2340v-2340h-2340Z"/></clipPath><clipPath id="h" clipPathUnits="userSpaceOnUse"><path d="M-657.582 1464.124h2340v-2340h-2340Z"/></clipPath></defs><path d="M0 0c2.899-10.864-2.758-22.184-13.186-26.388l-137.641-55.486 384.671-336.729h397.935l-735.041 805.558Z" clip-path="url(#a)" style="fill:#9b2001;fill-opacity:1;fill-rule:nonzero;stroke:none" transform="matrix(1.33333 0 0 -1.33333 259.811 1631.844)"/><path d="M0 0c-5.512-10.478-18.261-14.809-29.015-9.857l-192.101 88.466 107.991-644.2c1.977-11.792-5.031-21.062-14.253-24.523l212.985-610.09h122.329V395.282Z" clip-path="url(#b)" style="fill:#9b2001;fill-opacity:1;fill-rule:nonzero;stroke:none" transform="matrix(1.33333 0 0 -1.33333 1251.323 589.709)"/><path d="M0 0c-.126-.031-.25-.066-.377-.094a22 22 0 0 0-2.519-.404 22 22 0 0 0-.722-.069 22 22 0 0 0-2.301-.048 22 22 0 0 0-1.049.064c-.687.056-1.368.131-2.053.254-.45.079-.896.194-1.344.304-.598.148-1.193.295-1.785.498-.543.185-1.073.427-1.607.659-.499.218-1 .415-1.489.675-.644.341-1.266.764-1.89 1.181-.369.247-.748.453-1.109.727a24 24 0 0 0-2.833 2.515l-291.276 304.219-35.86-168.68c-2.551-12-14.329-19.674-26.337-17.161l-342.262 71.643L18.228-609.274H215.69L2.704.816A23 23 0 0 0 0 0" clip-path="url(#c)" style="fill:#c33428;fill-opacity:1;fill-rule:nonzero;stroke:none" transform="matrix(1.33333 0 0 -1.33333 1077.88 1377.615)"/><path d="M0 0c-12.008-2.513-23.786 5.161-26.337 17.161l-35.859 168.68-292.362-305.353c-15.157-15.83-41.66-2.538-38.036 19.077l108.182 645.334-192.103-88.466c-10.754-4.953-23.503-.622-29.015 9.857l-207.935 395.281V-733.915h320.113L342.262 71.643Z" clip-path="url(#d)" style="fill:#c33428;fill-opacity:1;fill-rule:nonzero;stroke:none" transform="matrix(1.33333 0 0 -1.33333 2479.857 1211.428)"/><path d="m0 0-137.641 55.487c-10.428 4.204-16.085 15.523-13.186 26.387l103.262 386.955-735.614-805.558h398.508z" clip-path="url(#e)" style="fill:#9b2001;fill-opacity:1;fill-rule:nonzero;stroke:none" transform="matrix(1.33333 0 0 -1.33333 2999.627 1741.01)"/><path d="M0 0c-82.977 0-150.484 65.486-150.484 145.982S-82.977 291.966 0 291.966c82.98 0 150.485-65.489 150.485-145.984S82.98 0 0 0m0 312.08c-94.411 0-171.219-74.511-171.219-166.098 0-88.205 71.25-160.541 160.847-165.763v-706.878h20.735v706.877c89.599 5.218 160.856 77.557 160.856 165.764 0 91.587-76.81 166.098-171.219 166.098" clip-path="url(#f)" style="fill:#fff;fill-opacity:1;fill-rule:nonzero;stroke:none" transform="matrix(1.33333 0 0 -1.33333 1528.575 1221.107)"/><path d="M0 0c-82.979 0-150.484 67.505-150.484 150.482S-82.979 300.967 0 300.967s150.484-67.508 150.484-150.485S82.979 0 0 0m171.219 150.482c0 94.411-76.81 171.22-171.219 171.22s-171.219-76.809-171.219-171.22c0-90.925 71.252-165.49 160.847-170.873v-263.516h20.735v263.515c89.599 5.379 160.856 79.945 160.856 170.874" clip-path="url(#g)" style="fill:#fff;fill-opacity:1;fill-rule:nonzero;stroke:none" transform="matrix(1.33333 0 0 -1.33333 2204.375 1811.437)"/><path d="M0 0c-82.977 0-150.484 67.505-150.484 150.484 0 82.978 67.507 150.483 150.484 150.483s150.482-67.505 150.482-150.483S82.977 0 0 0m0 321.701c-94.411 0-171.219-76.808-171.219-171.217 0-90.923 71.25-165.492 160.847-166.268v-180.578h20.735v180.578c89.598.771 160.854 75.342 160.854 166.268 0 94.409-76.808 171.217-171.217 171.217" clip-path="url(#h)" style="fill:#fff;fill-opacity:1;fill-rule:nonzero;stroke:none" transform="matrix(1.33333 0 0 -1.33333 852.776 1928.166)"/><path d="M128.672-53.66q7.042-12.034 7.043-27.645-.001-21.678-13.547-36.304-13.547-14.635-35.343-14.637-21.564 0-35.121 14.637-13.548 14.625-13.547 36.304-.001 21.682 13.547 36.317Q65.26-30.352 87.047-30.352q8.999 0 16.582-2.496L91.383-48.785l25.793-19.828zM123.036-7.7Q106.884 0 86.942 0 52.253 0 28.946-23.355 5.636-46.721 5.637-81.305q0-34.684 23.309-57.984 23.307-23.31 57.996-23.309 34.685 0 57.984 23.309 23.31 23.299 23.309 57.984 0 31.654-19.406 53.766l13.875 18L136.91 10.3zm77.393-154.898v102.973q0 24.94 20.05 42.281Q240.543.001 270.895 0q30.349.001 50.402-17.344 20.05-17.341 20.051-42.281v-102.973h-32.52v94.301q-.001 18.435-10.84 27.106-10.841 8.673-27.093 8.671-16.268.002-27.105-8.671-10.841-8.67-10.84-27.106v-94.3ZM378.396 0l65.039-162.598h32.52L540.888-.105 506.306 0l-9.75-24.938h-73.71L413.082 0Zm82.172-119.238-24.715 61.781h48.773zM608.18-32.414v-97.664h30.129c28.834 0 43.29 16.26 43.36 48.773q-.107 48.787-43.36 48.89zM638.31 0q75.877.001 75.879-81.305-.001-81.396-75.879-81.398h-62.648V0Zm151.298-130.184h45.855q19.301.647 19.84 12.575-.541 19.945-20.168 20.261h-45.527zm0 65.04h53.45q22.544.645 23.085 16.253-.54 23.204-23.414 23.52h-53.121zm97.02-49.547q-2.276-45.41-43.36-47.801h-86.285V0l91.488.105c31.29-1.804 47.654-18.026 49.102-48.668q-1.302-22.874-22.653-37.183 10.943-7.263 11.707-28.945M931.84 0l65.04-162.598h32.519L1094.333-.105 1059.75 0 1050-24.938h-73.71L966.528 0Zm82.172-119.238-24.715 61.781h48.774zm115.424-43.36V0h119.238v-30.352h-86.719v-132.246Zm156.732 0V0h119.239v-30.352h-86.72v-132.246Zm0 0" aria-label="QUADBALL" style="fill:#000;fill-opacity:1;fill-rule:nonzero;stroke:none" transform="translate(590.203 2467.406)scale(1.33333)"/><path d="M116.508.001q-46.431-.14-77.895-31.453Q7.15-62.776 7.148-109.932c.1-30.756 10.612-56.626 31.536-77.602Q70.077-219 116.508-219q46.862 0 80.449 29.203l-29.203 31.969q-22.339-17.518-51.246-17.52-29.496.154-47.531 18.399-18.025 18.246-18.024 46.722.141 30.516 18.246 48.47 18.106 17.954 47.602 17.952 29.482 0 50.953-17.367l29.203 31.969Q163.522.002 116.507 0m115.957 0 87.598-219h43.804L451.313-.139l-46.57.14-13.138-33.574h-99.28L279.187 0Zm110.672-160.594-33.293 83.215h65.707zM484.093.001v-219h14.601L635.933-81.761v-137.238h43.804v219h-16.066L527.897-135.772V0Zm229.465 0 87.597-219h43.805L932.405-.139l-46.57.14-13.137-33.574h-99.281L760.28 0ZM824.23-160.593l-33.293 83.215h65.707zM1008.99-43.65v-131.543h40.582q58.253.001 58.407 65.695-.153 65.698-58.407 65.848zM1049.572 0q102.2.002 102.2-109.5 0-109.64-102.2-109.64h-84.386V0Zm137.602 0 87.598-219h43.804l87.445 218.86-46.57.14-13.137-33.574h-99.28L1233.895 0zm110.672-160.594-33.293 83.215h65.707zm0 0" aria-label="CANADA" style="fill:#b21108;fill-opacity:1;fill-rule:nonzero;stroke:none" transform="translate(588.777 2823.737)scale(1.33333)"/></svg>