<?xml version="1.0" encoding="utf-8" ?>
<svg baseProfile="full" height="800px" version="1.1" width="1200px" xmlns="http://www.w3.org/2000/svg" xmlns:ev="http://www.w3.org/2001/xml-events" xmlns:xlink="http://www.w3.org/1999/xlink"><defs><marker id="arrow_190_132_220_132" markerHeight="10" markerWidth="10" orient="auto" refX="10" refY="5"><path d="M0,0 L10,5 L0,10 Z" fill="#3B82F6" /></marker><marker id="arrow_340_132_370_132" markerHeight="10" markerWidth="10" orient="auto" refX="10" refY="5"><path d="M0,0 L10,5 L0,10 Z" fill="#3B82F6" /></marker><marker id="arrow_510_132_540_132" markerHeight="10" markerWidth="10" orient="auto" refX="10" refY="5"><path d="M0,0 L10,5 L0,10 Z" fill="#3B82F6" /></marker><marker id="arrow_620_132_680_132" markerHeight="10" markerWidth="10" orient="auto" refX="10" refY="5"><path d="M0,0 L10,5 L0,10 Z" fill="#3B82F6" /></marker><marker id="arrow_200_332_230_332" markerHeight="10" markerWidth="10" orient="auto" refX="10" refY="5"><path d="M0,0 L10,5 L0,10 Z" fill="#10B981" /></marker><marker id="arrow_350_332_380_332" markerHeight="10" markerWidth="10" orient="auto" refX="10" refY="5"><path d="M0,0 L10,5 L0,10 Z" fill="#10B981" /></marker><marker id="arrow_520_332_550_332" markerHeight="10" markerWidth="10" orient="auto" refX="10" refY="5"><path d="M0,0 L10,5 L0,10 Z" fill="#10B981" /></marker><marker id="arrow_680_332_710_332" markerHeight="10" markerWidth="10" orient="auto" refX="10" refY="5"><path d="M0,0 L10,5 L0,10 Z" fill="#10B981" /></marker><marker id="arrow_200_532_230_532" markerHeight="10" markerWidth="10" orient="auto" refX="10" refY="5"><path d="M0,0 L10,5 L0,10 Z" fill="#8B5CF6" /></marker><marker id="arrow_350_532_380_532" markerHeight="10" markerWidth="10" orient="auto" refX="10" refY="5"><path d="M0,0 L10,5 L0,10 Z" fill="#8B5CF6" /></marker><marker id="arrow_520_520_550_515" markerHeight="10" markerWidth="10" orient="auto" refX="10" refY="5"><path d="M0,0 L10,5 L0,10 Z" fill="#8B5CF6" /></marker><marker id="arrow_520_545_550_565" markerHeight="10" markerWidth="10" orient="auto" refX="10" refY="5"><path d="M0,0 L10,5 L0,10 Z" fill="#8B5CF6" /></marker></defs><rect fill="#FAFBFC" height="100%" width="100%" x="0" y="0" /><text fill="#1E293B" font-family="system-ui, sans-serif" font-size="24px" font-weight="700" x="40" y="35">Data Flow Diagrams</text><text fill="#64748B" font-family="system-ui, sans-serif" font-size="14px" x="40" y="55">User Submission · Reporting · Notifications</text><rect fill="#EFF6FF" height="180" rx="10" ry="10" stroke="#3B82F6" stroke-width="2" width="1100" x="40" y="80" /><rect fill="#3B82F6" height="22" rx="4" ry="4" width="130" x="50" y="68" /><text fill="white" font-family="monospace" font-size="10px" font-weight="600" x="60" y="84">USER SUBMISSION</text><circle cx="70" cy="130" fill="#3B82F6" r="12" /><text fill="white" font-family="monospace" font-size="12px" font-weight="700" x="66" y="135">1</text><g><rect fill="#E2E8F0" height="45" rx="6" ry="6" width="100" x="92" y="112" /><rect fill="#F1F5F9" height="45" rx="6" ry="6" stroke="#1E293B" stroke-width="2" width="100" x="90" y="110" /><rect fill="#1E293B" height="33" width="4" x="90" y="116" /><text fill="#1E293B" font-family="system-ui, -apple-system, sans-serif" font-size="14px" font-weight="600" x="104" y="130">Browser</text><text fill="#64748B" font-family="system-ui, sans-serif" font-size="12px" x="104" y="146">Form entry</text></g><circle cx="220" cy="130" fill="#3B82F6" r="12" /><text fill="white" font-family="monospace" font-size="12px" font-weight="700" x="216" y="135">2</text><g><rect fill="#E2E8F0" height="45" rx="6" ry="6" width="100" x="242" y="112" /><rect fill="#ECFDF5" height="45" rx="6" ry="6" stroke="#10B981" stroke-width="2" width="100" x="240" y="110" /><rect fill="#10B981" height="33" width="4" x="240" y="116" /><text fill="#1E293B" font-family="system-ui, -apple-system, sans-serif" font-size="14px" font-weight="600" x="254" y="130">API</text><text fill="#64748B" font-family="system-ui, sans-serif" font-size="12px" x="254" y="146">Lambda</text></g><circle cx="370" cy="130" fill="#3B82F6" r="12" /><text fill="white" font-family="monospace" font-size="12px" font-weight="700" x="366" y="135">3</text><g><rect fill="#E2E8F0" height="45" rx="6" ry="6" width="120" x="392" y="112" /><rect fill="#ECFDF5" height="45" rx="6" ry="6" stroke="#10B981" stroke-width="2" width="120" x="390" y="110" /><rect fill="#10B981" height="33" width="4" x="390" y="116" /><text fill="#1E293B" font-family="system-ui, -apple-system, sans-serif" font-size="14px" font-weight="600" x="404" y="130">Validation</text><text fill="#64748B" font-family="system-ui, sans-serif" font-size="12px" x="404" y="146">Schema rules</text></g><circle cx="540" cy="130" fill="#3B82F6" r="12" /><text fill="white" font-family="monospace" font-size="12px" font-weight="700" x="536" y="135">4</text><g><ellipse cx="592" cy="113" fill="#E2E8F0" rx="25" ry="6" /><rect fill="#E2E8F0" height="48" width="50" x="567" y="113" /><rect fill="#FFFBEB" height="48" width="50" x="565" y="111" /><line stroke="#F59E0B" stroke-width="2" x1="565" x2="565" y1="111" y2="159" /><line stroke="#F59E0B" stroke-width="2" x1="615" x2="615" y1="111" y2="159" /><ellipse cx="590" cy="111" fill="#FFFBEB" rx="25" ry="6" stroke="#F59E0B" stroke-width="2" /><ellipse cx="590" cy="159" fill="#FFFBEB" rx="25" ry="6" stroke="#F59E0B" stroke-width="2" /><text fill="#1E293B" font-family="system-ui, sans-serif" font-size="14px" font-weight="600" x="550" y="185">PostgreSQL</text></g><circle cx="680" cy="130" fill="#3B82F6" r="12" /><text fill="white" font-family="monospace" font-size="12px" font-weight="700" x="676" y="135">5</text><g><rect fill="#E2E8F0" height="45" rx="6" ry="6" width="120" x="702" y="112" /><rect fill="#FEF2F2" height="45" rx="6" ry="6" stroke="#EF4444" stroke-width="2" width="120" x="700" y="110" /><rect fill="#EF4444" height="33" width="4" x="700" y="116" /><text fill="#1E293B" font-family="system-ui, -apple-system, sans-serif" font-size="14px" font-weight="600" x="714" y="130">Audit Log</text><text fill="#64748B" font-family="system-ui, sans-serif" font-size="12px" x="714" y="146">Hash chain</text></g><g><line marker-end="url(#arrow_190_132_220_132)" stroke="#3B82F6" stroke-width="2" x1="190" x2="220" y1="132" y2="132" /></g><g><line marker-end="url(#arrow_340_132_370_132)" stroke="#3B82F6" stroke-width="2" x1="340" x2="370" y1="132" y2="132" /></g><g><line marker-end="url(#arrow_510_132_540_132)" stroke="#3B82F6" stroke-width="2" x1="510" x2="540" y1="132" y2="132" /></g><g><line marker-end="url(#arrow_620_132_680_132)" stroke="#3B82F6" stroke-width="2" x1="620" x2="680" y1="132" y2="132" /></g><text fill="#64748B" font-family="system-ui, sans-serif" font-size="11px" x="60" y="200">Form data → Validated → Stored with version history → Audit record created</text><rect fill="#ECFDF5" height="180" rx="10" ry="10" stroke="#10B981" stroke-width="2" width="1100" x="40" y="280" /><rect fill="#10B981" height="22" rx="4" ry="4" width="120" x="50" y="268" /><text fill="white" font-family="monospace" font-size="10px" font-weight="600" x="60" y="284">REPORTING FLOW</text><circle cx="70" cy="330" fill="#10B981" r="12" /><text fill="white" font-family="monospace" font-size="12px" font-weight="700" x="66" y="335">1</text><g><rect fill="#E2E8F0" height="45" rx="6" ry="6" width="110" x="92" y="312" /><rect fill="#F1F5F9" height="45" rx="6" ry="6" stroke="#1E293B" stroke-width="2" width="110" x="90" y="310" /><rect fill="#1E293B" height="33" width="4" x="90" y="316" /><text fill="#1E293B" font-family="system-ui, -apple-system, sans-serif" font-size="14px" font-weight="600" x="104" y="330">Report Builder</text><text fill="#64748B" font-family="system-ui, sans-serif" font-size="12px" x="104" y="346">UI</text></g><circle cx="230" cy="330" fill="#10B981" r="12" /><text fill="white" font-family="monospace" font-size="12px" font-weight="700" x="226" y="335">2</text><g><rect fill="#E2E8F0" height="45" rx="6" ry="6" width="100" x="252" y="312" /><rect fill="#ECFDF5" height="45" rx="6" ry="6" stroke="#10B981" stroke-width="2" width="100" x="250" y="310" /><rect fill="#10B981" height="33" width="4" x="250" y="316" /><text fill="#1E293B" font-family="system-ui, -apple-system, sans-serif" font-size="14px" font-weight="600" x="264" y="330">Query API</text><text fill="#64748B" font-family="system-ui, sans-serif" font-size="12px" x="264" y="346">Handler</text></g><circle cx="380" cy="330" fill="#10B981" r="12" /><text fill="white" font-family="monospace" font-size="12px" font-weight="700" x="376" y="335">3</text><g><rect fill="#E2E8F0" height="45" rx="6" ry="6" width="120" x="402" y="312" /><rect fill="#FDF2F8" height="45" rx="6" ry="6" stroke="#EC4899" stroke-width="2" width="120" x="400" y="310" /><rect fill="#EC4899" height="33" width="4" x="400" y="316" /><text fill="#1E293B" font-family="system-ui, -apple-system, sans-serif" font-size="14px" font-weight="600" x="414" y="330">Access Control</text><text fill="#64748B" font-family="system-ui, sans-serif" font-size="12px" x="414" y="346">RBAC+scope</text></g><circle cx="550" cy="330" fill="#10B981" r="12" /><text fill="white" font-family="monospace" font-size="12px" font-weight="700" x="546" y="335">4</text><g><rect fill="#E2E8F0" height="45" rx="6" ry="6" width="110" x="572" y="312" /><rect fill="#ECFDF5" height="45" rx="6" ry="6" stroke="#10B981" stroke-width="2" width="110" x="570" y="310" /><rect fill="#10B981" height="33" width="4" x="570" y="316" /><text fill="#1E293B" font-family="system-ui, -apple-system, sans-serif" font-size="14px" font-weight="600" x="584" y="330">Aggregation</text><text fill="#64748B" font-family="system-ui, sans-serif" font-size="12px" x="584" y="346">Compute</text></g><circle cx="710" cy="330" fill="#10B981" r="12" /><text fill="white" font-family="monospace" font-size="12px" font-weight="700" x="706" y="335">5</text><g><rect fill="#E2E8F0" height="45" rx="6" ry="6" width="100" x="732" y="312" /><rect fill="#FFFBEB" height="45" rx="6" ry="6" stroke="#F59E0B" stroke-width="2" width="100" x="730" y="310" /><rect fill="#F59E0B" height="33" width="4" x="730" y="316" /><text fill="#1E293B" font-family="system-ui, -apple-system, sans-serif" font-size="14px" font-weight="600" x="744" y="330">Export</text><text fill="#64748B" font-family="system-ui, sans-serif" font-size="12px" x="744" y="346">CSV/PDF</text></g><g><line marker-end="url(#arrow_200_332_230_332)" stroke="#10B981" stroke-width="2" x1="200" x2="230" y1="332" y2="332" /></g><g><line marker-end="url(#arrow_350_332_380_332)" stroke="#10B981" stroke-width="2" x1="350" x2="380" y1="332" y2="332" /></g><g><line marker-end="url(#arrow_520_332_550_332)" stroke="#10B981" stroke-width="2" x1="520" x2="550" y1="332" y2="332" /></g><g><line marker-end="url(#arrow_680_332_710_332)" stroke="#10B981" stroke-width="2" x1="680" x2="710" y1="332" y2="332" /></g><text fill="#64748B" font-family="system-ui, sans-serif" font-size="11px" x="60" y="400">Filtered by org scope → Data aggregated server-side → Exported in requested format</text><rect fill="#F5F3FF" height="180" rx="10" ry="10" stroke="#8B5CF6" stroke-width="2" width="1100" x="40" y="480" /><rect fill="#8B5CF6" height="22" rx="4" ry="4" width="140" x="50" y="468" /><text fill="white" font-family="monospace" font-size="10px" font-weight="600" x="60" y="484">NOTIFICATION FLOW</text><circle cx="70" cy="530" fill="#8B5CF6" r="12" /><text fill="white" font-family="monospace" font-size="12px" font-weight="700" x="66" y="535">1</text><g><rect fill="#E2E8F0" height="45" rx="6" ry="6" width="110" x="92" y="512" /><rect fill="#ECFDF5" height="45" rx="6" ry="6" stroke="#10B981" stroke-width="2" width="110" x="90" y="510" /><rect fill="#10B981" height="33" width="4" x="90" y="516" /><text fill="#1E293B" font-family="system-ui, -apple-system, sans-serif" font-size="14px" font-weight="600" x="104" y="530">Domain Event</text><text fill="#64748B" font-family="system-ui, sans-serif" font-size="12px" x="104" y="546">Trigger</text></g><circle cx="230" cy="530" fill="#8B5CF6" r="12" /><text fill="white" font-family="monospace" font-size="12px" font-weight="700" x="226" y="535">2</text><g><rect fill="#E2E8F0" height="45" rx="6" ry="6" width="100" x="252" y="512" /><rect fill="#F5F3FF" height="45" rx="6" ry="6" stroke="#8B5CF6" stroke-width="2" width="100" x="250" y="510" /><rect fill="#8B5CF6" height="33" width="4" x="250" y="516" /><text fill="#1E293B" font-family="system-ui, -apple-system, sans-serif" font-size="14px" font-weight="600" x="264" y="530">SQS Queue</text><text fill="#64748B" font-family="system-ui, sans-serif" font-size="12px" x="264" y="546">Buffer</text></g><circle cx="380" cy="530" fill="#8B5CF6" r="12" /><text fill="white" font-family="monospace" font-size="12px" font-weight="700" x="376" y="535">3</text><g><rect fill="#E2E8F0" height="45" rx="6" ry="6" width="120" x="402" y="512" /><rect fill="#ECFDF5" height="45" rx="6" ry="6" stroke="#10B981" stroke-width="2" width="120" x="400" y="510" /><rect fill="#10B981" height="33" width="4" x="400" y="516" /><text fill="#1E293B" font-family="system-ui, -apple-system, sans-serif" font-size="14px" font-weight="600" x="414" y="530">Worker Lambda</text><text fill="#64748B" font-family="system-ui, sans-serif" font-size="12px" x="414" y="546">Process</text></g><circle cx="550" cy="510" fill="#8B5CF6" r="12" /><text fill="white" font-family="monospace" font-size="12px" font-weight="700" x="546" y="515">4</text><g><rect fill="#E2E8F0" height="40" rx="6" ry="6" width="100" x="572" y="497" /><rect fill="#F5F3FF" height="40" rx="6" ry="6" stroke="#8B5CF6" stroke-width="2" width="100" x="570" y="495" /><rect fill="#8B5CF6" height="28" width="4" x="570" y="501" /><text fill="#1E293B" font-family="system-ui, -apple-system, sans-serif" font-size="14px" font-weight="600" x="584" y="513">SES Email</text><text fill="#64748B" font-family="system-ui, sans-serif" font-size="12px" x="584" y="529">External</text></g><g><rect fill="#E2E8F0" height="40" rx="6" ry="6" width="100" x="572" y="547" /><rect fill="#F5F3FF" height="40" rx="6" ry="6" stroke="#8B5CF6" stroke-width="2" width="100" x="570" y="545" /><rect fill="#8B5CF6" height="28" width="4" x="570" y="551" /><text fill="#1E293B" font-family="system-ui, -apple-system, sans-serif" font-size="14px" font-weight="600" x="584" y="563">In-App</text><text fill="#64748B" font-family="system-ui, sans-serif" font-size="12px" x="584" y="579">Alerts</text></g><g><line marker-end="url(#arrow_200_532_230_532)" stroke="#8B5CF6" stroke-width="2" x1="200" x2="230" y1="532" y2="532" /></g><g><line marker-end="url(#arrow_350_532_380_532)" stroke="#8B5CF6" stroke-width="2" x1="350" x2="380" y1="532" y2="532" /></g><g><line marker-end="url(#arrow_520_520_550_515)" stroke="#8B5CF6" stroke-width="2" x1="520" x2="550" y1="520" y2="515" /></g><g><line marker-end="url(#arrow_520_545_550_565)" stroke="#8B5CF6" stroke-width="2" x1="520" x2="550" y1="545" y2="565" /></g><text fill="#64748B" font-family="system-ui, sans-serif" font-size="11px" x="60" y="610">Events queued async → Workers process with retry → Email and/or in-app delivery</text><rect fill="white" height="160" rx="8" ry="8" stroke="#CBD5E1" stroke-width="1" width="230" x="900" y="80" /><text fill="#1E293B" font-family="system-ui, sans-serif" font-size="12px" font-weight="600" x="920" y="105">Component Types</text><rect fill="#F1F5F9" height="18" rx="3" ry="3" stroke="#1E293B" stroke-width="2" width="25" x="920" y="120" /><text fill="#1E293B" font-family="system-ui, sans-serif" font-size="11px" x="955" y="133">User Interface</text><rect fill="#ECFDF5" height="18" rx="3" ry="3" stroke="#10B981" stroke-width="2" width="25" x="920" y="148" /><text fill="#1E293B" font-family="system-ui, sans-serif" font-size="11px" x="955" y="161">App Logic</text><rect fill="#F5F3FF" height="18" rx="3" ry="3" stroke="#8B5CF6" stroke-width="2" width="25" x="920" y="176" /><text fill="#1E293B" font-family="system-ui, sans-serif" font-size="11px" x="955" y="189">Async</text><rect fill="#FEF2F2" height="18" rx="3" ry="3" stroke="#EF4444" stroke-width="2" width="25" x="920" y="204" /><text fill="#1E293B" font-family="system-ui, sans-serif" font-size="11px" x="955" y="217">Audit</text><text fill="#94A3B8" font-family="monospace" font-size="10px" x="40" y="780">Async processing · Audit trail · Access control</text></svg>