<?xml version="1.0" encoding="utf-8" ?>
<svg baseProfile="full" height="950px" version="1.1" width="1200px" xmlns="http://www.w3.org/2000/svg" xmlns:ev="http://www.w3.org/2001/xml-events" xmlns:xlink="http://www.w3.org/1999/xlink"><defs><marker id="arrow_170_122_195_122" markerHeight="10" markerWidth="10" orient="auto" refX="10" refY="5"><path d="M0,0 L10,5 L0,10 Z" fill="#3B82F6" /></marker><marker id="arrow_305_122_330_122" markerHeight="10" markerWidth="10" orient="auto" refX="10" refY="5"><path d="M0,0 L10,5 L0,10 Z" fill="#3B82F6" /></marker><marker id="arrow_450_122_475_122" markerHeight="10" markerWidth="10" orient="auto" refX="10" refY="5"><path d="M0,0 L10,5 L0,10 Z" fill="#3B82F6" /></marker><marker id="arrow_585_122_610_122" markerHeight="10" markerWidth="10" orient="auto" refX="10" refY="5"><path d="M0,0 L10,5 L0,10 Z" fill="#3B82F6" /></marker><marker id="arrow_695_110_770_118" markerHeight="10" markerWidth="10" orient="auto" refX="10" refY="5"><path d="M0,0 L10,5 L0,10 Z" fill="#3B82F6" /></marker><marker id="arrow_695_135_770_155" markerHeight="10" markerWidth="10" orient="auto" refX="10" refY="5"><path d="M0,0 L10,5 L0,10 Z" fill="#3B82F6" /></marker><marker id="arrow_180_302_205_302" markerHeight="10" markerWidth="10" orient="auto" refX="10" refY="5"><path d="M0,0 L10,5 L0,10 Z" fill="#10B981" /></marker><marker id="arrow_315_302_340_302" markerHeight="10" markerWidth="10" orient="auto" refX="10" refY="5"><path d="M0,0 L10,5 L0,10 Z" fill="#10B981" /></marker><marker id="arrow_470_302_495_302" markerHeight="10" markerWidth="10" orient="auto" refX="10" refY="5"><path d="M0,0 L10,5 L0,10 Z" fill="#10B981" /></marker><marker id="arrow_615_302_640_302" markerHeight="10" markerWidth="10" orient="auto" refX="10" refY="5"><path d="M0,0 L10,5 L0,10 Z" fill="#10B981" /></marker><marker id="arrow_760_302_785_302" markerHeight="10" markerWidth="10" orient="auto" refX="10" refY="5"><path d="M0,0 L10,5 L0,10 Z" fill="#10B981" /></marker><marker id="arrow_180_482_205_482" markerHeight="10" markerWidth="10" orient="auto" refX="10" refY="5"><path d="M0,0 L10,5 L0,10 Z" fill="#8B5CF6" /></marker><marker id="arrow_315_482_340_482" markerHeight="10" markerWidth="10" orient="auto" refX="10" refY="5"><path d="M0,0 L10,5 L0,10 Z" fill="#8B5CF6" /></marker><marker id="arrow_470_475_495_472" markerHeight="10" markerWidth="10" orient="auto" refX="10" refY="5"><path d="M0,0 L10,5 L0,10 Z" fill="#8B5CF6" /></marker><marker id="arrow_470_490_495_512" markerHeight="10" markerWidth="10" orient="auto" refX="10" refY="5"><path d="M0,0 L10,5 L0,10 Z" fill="#8B5CF6" /></marker><marker id="arrow_270_503_270_520" markerHeight="10" markerWidth="10" orient="auto" refX="10" refY="5"><path d="M0,0 L10,5 L0,10 Z" fill="#DC2626" /></marker><marker id="arrow_170_672_195_672" markerHeight="10" markerWidth="10" orient="auto" refX="10" refY="5"><path d="M0,0 L10,5 L0,10 Z" fill="#F97316" /></marker><marker id="arrow_315_672_340_672" markerHeight="10" markerWidth="10" orient="auto" refX="10" refY="5"><path d="M0,0 L10,5 L0,10 Z" fill="#F97316" /></marker><marker id="arrow_450_672_475_672" markerHeight="10" markerWidth="10" orient="auto" refX="10" refY="5"><path d="M0,0 L10,5 L0,10 Z" fill="#F97316" /></marker><marker id="arrow_605_672_630_672" markerHeight="10" markerWidth="10" orient="auto" refX="10" refY="5"><path d="M0,0 L10,5 L0,10 Z" fill="#F97316" /></marker><marker id="arrow_740_672_765_672" markerHeight="10" markerWidth="10" orient="auto" refX="10" refY="5"><path d="M0,0 L10,5 L0,10 Z" fill="#F97316" /></marker><marker id="arrow_840_665_910_672" markerHeight="10" markerWidth="10" orient="auto" refX="10" refY="5"><path d="M0,0 L10,5 L0,10 Z" fill="#F97316" /></marker><marker id="arrow_840_690_910_712" markerHeight="10" markerWidth="10" orient="auto" refX="10" refY="5"><path d="M0,0 L10,5 L0,10 Z" fill="#F97316" /></marker></defs><rect fill="#FAFBFC" height="100%" width="100%" x="0" y="0" /><text fill="#1E293B" font-family="system-ui, sans-serif" font-size="24px" font-weight="700" x="40" y="35">Data Flow Diagrams v3</text><text fill="#64748B" font-family="system-ui, sans-serif" font-size="14px" x="40" y="55">User Submission · Reporting · Notifications · Batch Import</text><rect fill="#EFF6FF" height="160" rx="10" ry="10" stroke="#3B82F6" stroke-width="2" width="1100" x="40" y="80" /><rect fill="#3B82F6" height="22" rx="4" ry="4" width="130" x="50" y="68" /><text fill="white" font-family="monospace" font-size="10px" font-weight="600" x="60" y="84">USER SUBMISSION</text><circle cx="60" cy="120" fill="#3B82F6" r="12" /><text fill="white" font-family="monospace" font-size="12px" font-weight="700" x="56" y="125">1</text><g><rect fill="#E2E8F0" height="38" rx="6" ry="6" width="90" x="82" y="107" /><rect fill="#F1F5F9" height="38" rx="6" ry="6" stroke="#1E293B" stroke-width="2" width="90" x="80" y="105" /><rect fill="#1E293B" height="26" width="4" x="80" y="111" /><text fill="#1E293B" font-family="system-ui, -apple-system, sans-serif" font-size="13px" font-weight="600" x="94" y="122">Browser</text><text fill="#64748B" font-family="system-ui, sans-serif" font-size="11px" x="94" y="136">Form</text></g><circle cx="195" cy="120" fill="#3B82F6" r="12" /><text fill="white" font-family="monospace" font-size="12px" font-weight="700" x="191" y="125">2</text><g><rect fill="#E2E8F0" height="38" rx="6" ry="6" width="90" x="217" y="107" /><rect fill="#ECFDF5" height="38" rx="6" ry="6" stroke="#10B981" stroke-width="2" width="90" x="215" y="105" /><rect fill="#10B981" height="26" width="4" x="215" y="111" /><text fill="#1E293B" font-family="system-ui, -apple-system, sans-serif" font-size="13px" font-weight="600" x="229" y="122">API</text><text fill="#64748B" font-family="system-ui, sans-serif" font-size="11px" x="229" y="136">Lambda</text></g><circle cx="330" cy="120" fill="#3B82F6" r="12" /><text fill="white" font-family="monospace" font-size="12px" font-weight="700" x="326" y="125">3</text><g><rect fill="#E2E8F0" height="38" rx="6" ry="6" width="100" x="352" y="107" /><rect fill="#ECFDF5" height="38" rx="6" ry="6" stroke="#10B981" stroke-width="2" width="100" x="350" y="105" /><rect fill="#10B981" height="26" width="4" x="350" y="111" /><text fill="#1E293B" font-family="system-ui, -apple-system, sans-serif" font-size="13px" font-weight="600" x="364" y="122">Validation</text><text fill="#64748B" font-family="system-ui, sans-serif" font-size="11px" x="364" y="136">Schema</text></g><circle cx="475" cy="120" fill="#3B82F6" r="12" /><text fill="white" font-family="monospace" font-size="12px" font-weight="700" x="471" y="125">4</text><g><rect fill="#E2E8F0" height="38" rx="6" ry="6" width="90" x="497" y="107" /><rect fill="#ECFEFF" height="38" rx="6" ry="6" stroke="#06B6D4" stroke-width="2" width="90" x="495" y="105" /><rect fill="#06B6D4" height="26" width="4" x="495" y="111" /><text fill="#1E293B" font-family="system-ui, -apple-system, sans-serif" font-size="13px" font-weight="600" x="509" y="122">Redis</text><text fill="#64748B" font-family="system-ui, sans-serif" font-size="11px" x="509" y="136">Rate limit</text></g><circle cx="610" cy="120" fill="#3B82F6" r="12" /><text fill="white" font-family="monospace" font-size="12px" font-weight="700" x="606" y="125">5</text><g><ellipse cx="662" cy="105" fill="#E2E8F0" rx="22" ry="5" /><rect fill="#E2E8F0" height="44" width="45" x="640" y="105" /><rect fill="#FFFBEB" height="44" width="45" x="638" y="103" /><line stroke="#F59E0B" stroke-width="2" x1="638" x2="638" y1="103" y2="147" /><line stroke="#F59E0B" stroke-width="2" x1="682" x2="682" y1="103" y2="147" /><ellipse cx="660" cy="103" fill="#FFFBEB" rx="22" ry="5" stroke="#F59E0B" stroke-width="2" /><ellipse cx="660" cy="147" fill="#FFFBEB" rx="22" ry="5" stroke="#F59E0B" stroke-width="2" /><text fill="#1E293B" font-family="system-ui, sans-serif" font-size="12px" font-weight="600" x="625" y="170">PostgreSQL</text></g><circle cx="750" cy="120" fill="#3B82F6" r="12" /><text fill="white" font-family="monospace" font-size="12px" font-weight="700" x="746" y="125">6</text><g><rect fill="#E2E8F0" height="35" rx="6" ry="6" width="90" x="772" y="102" /><rect fill="#FEF2F2" height="35" rx="6" ry="6" stroke="#EF4444" stroke-width="2" width="90" x="770" y="100" /><rect fill="#EF4444" height="23" width="4" x="770" y="106" /><text fill="#1E293B" font-family="system-ui, -apple-system, sans-serif" font-size="13px" font-weight="600" x="784" y="115">Audit Log</text><text fill="#64748B" font-family="system-ui, sans-serif" font-size="11px" x="784" y="129">Hash chain</text></g><g><rect fill="#E2E8F0" height="35" rx="6" ry="6" width="90" x="772" y="142" /><rect fill="#EEF2FF" height="35" rx="6" ry="6" stroke="#6366F1" stroke-width="2" width="90" x="770" y="140" /><rect fill="#6366F1" height="23" width="4" x="770" y="146" /><text fill="#1E293B" font-family="system-ui, -apple-system, sans-serif" font-size="13px" font-weight="600" x="784" y="155">S3 Archive</text><text fill="#64748B" font-family="system-ui, sans-serif" font-size="11px" x="784" y="169">WORM</text></g><g><line marker-end="url(#arrow_170_122_195_122)" stroke="#3B82F6" stroke-width="2" x1="170" x2="195" y1="122" y2="122" /></g><g><line marker-end="url(#arrow_305_122_330_122)" stroke="#3B82F6" stroke-width="2" x1="305" x2="330" y1="122" y2="122" /></g><g><line marker-end="url(#arrow_450_122_475_122)" stroke="#3B82F6" stroke-width="2" x1="450" x2="475" y1="122" y2="122" /></g><g><line marker-end="url(#arrow_585_122_610_122)" stroke="#3B82F6" stroke-width="2" x1="585" x2="610" y1="122" y2="122" /></g><g><line marker-end="url(#arrow_695_110_770_118)" stroke="#3B82F6" stroke-width="2" x1="695" x2="770" y1="110" y2="118" /></g><g><line marker-end="url(#arrow_695_135_770_155)" stroke="#3B82F6" stroke-width="2" x1="695" x2="770" y1="135" y2="155" /></g><text fill="#64748B" font-family="system-ui, sans-serif" font-size="10px" x="60" y="180">Form → Validated → Rate limit (Redis) → Stored → Audit in DB + S3 archive</text><rect fill="#ECFDF5" height="160" rx="10" ry="10" stroke="#10B981" stroke-width="2" width="1100" x="40" y="260" /><rect fill="#10B981" height="22" rx="4" ry="4" width="120" x="50" y="248" /><text fill="white" font-family="monospace" font-size="10px" font-weight="600" x="60" y="264">REPORTING FLOW</text><circle cx="60" cy="300" fill="#10B981" r="12" /><text fill="white" font-family="monospace" font-size="12px" font-weight="700" x="56" y="305">1</text><g><rect fill="#E2E8F0" height="38" rx="6" ry="6" width="100" x="82" y="287" /><rect fill="#F1F5F9" height="38" rx="6" ry="6" stroke="#1E293B" stroke-width="2" width="100" x="80" y="285" /><rect fill="#1E293B" height="26" width="4" x="80" y="291" /><text fill="#1E293B" font-family="system-ui, -apple-system, sans-serif" font-size="13px" font-weight="600" x="94" y="302">Report Builder</text><text fill="#64748B" font-family="system-ui, sans-serif" font-size="11px" x="94" y="316">UI</text></g><circle cx="205" cy="300" fill="#10B981" r="12" /><text fill="white" font-family="monospace" font-size="12px" font-weight="700" x="201" y="305">2</text><g><rect fill="#E2E8F0" height="38" rx="6" ry="6" width="90" x="227" y="287" /><rect fill="#ECFDF5" height="38" rx="6" ry="6" stroke="#10B981" stroke-width="2" width="90" x="225" y="285" /><rect fill="#10B981" height="26" width="4" x="225" y="291" /><text fill="#1E293B" font-family="system-ui, -apple-system, sans-serif" font-size="13px" font-weight="600" x="239" y="302">Query API</text><text fill="#64748B" font-family="system-ui, sans-serif" font-size="11px" x="239" y="316">Handler</text></g><circle cx="340" cy="300" fill="#10B981" r="12" /><text fill="white" font-family="monospace" font-size="12px" font-weight="700" x="336" y="305">3</text><g><rect fill="#E2E8F0" height="38" rx="6" ry="6" width="110" x="362" y="287" /><rect fill="#F5F3FF" height="38" rx="6" ry="6" stroke="#8B5CF6" stroke-width="2" width="110" x="360" y="285" /><rect fill="#8B5CF6" height="26" width="4" x="360" y="291" /><text fill="#1E293B" font-family="system-ui, -apple-system, sans-serif" font-size="13px" font-weight="600" x="374" y="302">Access Control</text><text fill="#64748B" font-family="system-ui, sans-serif" font-size="11px" x="374" y="316">RBAC+scope</text></g><circle cx="495" cy="300" fill="#10B981" r="12" /><text fill="white" font-family="monospace" font-size="12px" font-weight="700" x="491" y="305">4</text><g><rect fill="#E2E8F0" height="38" rx="6" ry="6" width="100" x="517" y="287" /><rect fill="#ECFEFF" height="38" rx="6" ry="6" stroke="#06B6D4" stroke-width="2" width="100" x="515" y="285" /><rect fill="#06B6D4" height="26" width="4" x="515" y="291" /><text fill="#1E293B" font-family="system-ui, -apple-system, sans-serif" font-size="13px" font-weight="600" x="529" y="302">Redis Cache</text><text fill="#64748B" font-family="system-ui, sans-serif" font-size="11px" x="529" y="316">Query cache</text></g><circle cx="640" cy="300" fill="#10B981" r="12" /><text fill="white" font-family="monospace" font-size="12px" font-weight="700" x="636" y="305">5</text><g><rect fill="#E2E8F0" height="38" rx="6" ry="6" width="100" x="662" y="287" /><rect fill="#ECFDF5" height="38" rx="6" ry="6" stroke="#10B981" stroke-width="2" width="100" x="660" y="285" /><rect fill="#10B981" height="26" width="4" x="660" y="291" /><text fill="#1E293B" font-family="system-ui, -apple-system, sans-serif" font-size="13px" font-weight="600" x="674" y="302">Aggregation</text><text fill="#64748B" font-family="system-ui, sans-serif" font-size="11px" x="674" y="316">Compute</text></g><circle cx="785" cy="300" fill="#10B981" r="12" /><text fill="white" font-family="monospace" font-size="12px" font-weight="700" x="781" y="305">6</text><g><rect fill="#E2E8F0" height="38" rx="6" ry="6" width="90" x="807" y="287" /><rect fill="#FFFBEB" height="38" rx="6" ry="6" stroke="#F59E0B" stroke-width="2" width="90" x="805" y="285" /><rect fill="#F59E0B" height="26" width="4" x="805" y="291" /><text fill="#1E293B" font-family="system-ui, -apple-system, sans-serif" font-size="13px" font-weight="600" x="819" y="302">Export</text><text fill="#64748B" font-family="system-ui, sans-serif" font-size="11px" x="819" y="316">CSV/PDF</text></g><g><line marker-end="url(#arrow_180_302_205_302)" stroke="#10B981" stroke-width="2" x1="180" x2="205" y1="302" y2="302" /></g><g><line marker-end="url(#arrow_315_302_340_302)" stroke="#10B981" stroke-width="2" x1="315" x2="340" y1="302" y2="302" /></g><g><line marker-end="url(#arrow_470_302_495_302)" stroke="#10B981" stroke-width="2" x1="470" x2="495" y1="302" y2="302" /></g><g><line marker-end="url(#arrow_615_302_640_302)" stroke="#10B981" stroke-width="2" x1="615" x2="640" y1="302" y2="302" /></g><g><line marker-end="url(#arrow_760_302_785_302)" stroke="#10B981" stroke-width="2" x1="760" x2="785" y1="302" y2="302" /></g><text fill="#64748B" font-family="system-ui, sans-serif" font-size="10px" x="60" y="360">Filtered by org scope → Redis cache checked → Aggregated → Exported</text><rect fill="#F5F3FF" height="170" rx="10" ry="10" stroke="#8B5CF6" stroke-width="2" width="1100" x="40" y="440" /><rect fill="#8B5CF6" height="22" rx="4" ry="4" width="140" x="50" y="428" /><text fill="white" font-family="monospace" font-size="10px" font-weight="600" x="60" y="444">NOTIFICATION FLOW</text><circle cx="60" cy="480" fill="#8B5CF6" r="12" /><text fill="white" font-family="monospace" font-size="12px" font-weight="700" x="56" y="485">1</text><g><rect fill="#E2E8F0" height="38" rx="6" ry="6" width="100" x="82" y="467" /><rect fill="#ECFDF5" height="38" rx="6" ry="6" stroke="#10B981" stroke-width="2" width="100" x="80" y="465" /><rect fill="#10B981" height="26" width="4" x="80" y="471" /><text fill="#1E293B" font-family="system-ui, -apple-system, sans-serif" font-size="13px" font-weight="600" x="94" y="482">Domain Event</text><text fill="#64748B" font-family="system-ui, sans-serif" font-size="11px" x="94" y="496">Trigger</text></g><circle cx="205" cy="480" fill="#8B5CF6" r="12" /><text fill="white" font-family="monospace" font-size="12px" font-weight="700" x="201" y="485">2</text><g><rect fill="#E2E8F0" height="38" rx="6" ry="6" width="90" x="227" y="467" /><rect fill="#F5F3FF" height="38" rx="6" ry="6" stroke="#8B5CF6" stroke-width="2" width="90" x="225" y="465" /><rect fill="#8B5CF6" height="26" width="4" x="225" y="471" /><text fill="#1E293B" font-family="system-ui, -apple-system, sans-serif" font-size="13px" font-weight="600" x="239" y="482">SQS Queue</text><text fill="#64748B" font-family="system-ui, sans-serif" font-size="11px" x="239" y="496">Buffer</text></g><circle cx="340" cy="480" fill="#8B5CF6" r="12" /><text fill="white" font-family="monospace" font-size="12px" font-weight="700" x="336" y="485">3</text><g><rect fill="#E2E8F0" height="38" rx="6" ry="6" width="110" x="362" y="467" /><rect fill="#ECFDF5" height="38" rx="6" ry="6" stroke="#10B981" stroke-width="2" width="110" x="360" y="465" /><rect fill="#10B981" height="26" width="4" x="360" y="471" /><text fill="#1E293B" font-family="system-ui, -apple-system, sans-serif" font-size="13px" font-weight="600" x="374" y="482">Worker Lambda</text><text fill="#64748B" font-family="system-ui, sans-serif" font-size="11px" x="374" y="496">Process</text></g><circle cx="495" cy="465" fill="#8B5CF6" r="12" /><text fill="white" font-family="monospace" font-size="12px" font-weight="700" x="491" y="470">4</text><g><rect fill="#E2E8F0" height="35" rx="6" ry="6" width="90" x="517" y="457" /><rect fill="#F5F3FF" height="35" rx="6" ry="6" stroke="#8B5CF6" stroke-width="2" width="90" x="515" y="455" /><rect fill="#8B5CF6" height="23" width="4" x="515" y="461" /><text fill="#1E293B" font-family="system-ui, -apple-system, sans-serif" font-size="13px" font-weight="600" x="529" y="470">SES Email</text><text fill="#64748B" font-family="system-ui, sans-serif" font-size="11px" x="529" y="484">External</text></g><g><rect fill="#E2E8F0" height="35" rx="6" ry="6" width="90" x="517" y="497" /><rect fill="#F5F3FF" height="35" rx="6" ry="6" stroke="#8B5CF6" stroke-width="2" width="90" x="515" y="495" /><rect fill="#8B5CF6" height="23" width="4" x="515" y="501" /><text fill="#1E293B" font-family="system-ui, -apple-system, sans-serif" font-size="13px" font-weight="600" x="529" y="510">In-App</text><text fill="#64748B" font-family="system-ui, sans-serif" font-size="11px" x="529" y="524">Alerts</text></g><g><rect fill="#E2E8F0" height="38" rx="6" ry="6" width="100" x="227" y="522" /><rect fill="#FEF2F2" height="38" rx="6" ry="6" stroke="#DC2626" stroke-width="2" width="100" x="225" y="520" /><rect fill="#DC2626" height="26" width="4" x="225" y="526" /><text fill="#1E293B" font-family="system-ui, -apple-system, sans-serif" font-size="13px" font-weight="600" x="239" y="537">SQS DLQ</text><text fill="#64748B" font-family="system-ui, sans-serif" font-size="11px" x="239" y="551">Failed msgs</text></g><text fill="#94A3B8" font-family="system-ui, sans-serif" font-size="9px" x="225" y="570">Max 3 retries</text><g><line marker-end="url(#arrow_180_482_205_482)" stroke="#8B5CF6" stroke-width="2" x1="180" x2="205" y1="482" y2="482" /></g><g><line marker-end="url(#arrow_315_482_340_482)" stroke="#8B5CF6" stroke-width="2" x1="315" x2="340" y1="482" y2="482" /></g><g><line marker-end="url(#arrow_470_475_495_472)" stroke="#8B5CF6" stroke-width="2" x1="470" x2="495" y1="475" y2="472" /></g><g><line marker-end="url(#arrow_470_490_495_512)" stroke="#8B5CF6" stroke-width="2" x1="470" x2="495" y1="490" y2="512" /></g><g><line marker-end="url(#arrow_270_503_270_520)" stroke="#DC2626" stroke-width="2" x1="270" x2="270" y1="503" y2="520" /></g><text fill="#64748B" font-family="system-ui, sans-serif" font-size="10px" x="60" y="600">Events queued → Workers process → Email/in-app delivery · Failed → DLQ</text><rect fill="#FFF7ED" height="170" rx="10" ry="10" stroke="#F97316" stroke-width="2" width="1100" x="40" y="630" /><rect fill="#F97316" height="22" rx="4" ry="4" width="110" x="50" y="618" /><text fill="white" font-family="monospace" font-size="10px" font-weight="600" x="60" y="634">BATCH IMPORT</text><rect fill="#22C55E" height="22" rx="4" ry="4" width="40" x="170" y="618" /><text fill="white" font-family="monospace" font-size="10px" font-weight="600" x="180" y="634">NEW</text><circle cx="60" cy="670" fill="#F97316" r="12" /><text fill="white" font-family="monospace" font-size="12px" font-weight="700" x="56" y="675">1</text><g><rect fill="#E2E8F0" height="38" rx="6" ry="6" width="90" x="82" y="657" /><rect fill="#F1F5F9" height="38" rx="6" ry="6" stroke="#1E293B" stroke-width="2" width="90" x="80" y="655" /><rect fill="#1E293B" height="26" width="4" x="80" y="661" /><text fill="#1E293B" font-family="system-ui, -apple-system, sans-serif" font-size="13px" font-weight="600" x="94" y="672">CSV Upload</text><text fill="#64748B" font-family="system-ui, sans-serif" font-size="11px" x="94" y="686">User file</text></g><circle cx="195" cy="670" fill="#F97316" r="12" /><text fill="white" font-family="monospace" font-size="12px" font-weight="700" x="191" y="675">2</text><g><rect fill="#E2E8F0" height="38" rx="6" ry="6" width="100" x="217" y="657" /><rect fill="#EEF2FF" height="38" rx="6" ry="6" stroke="#6366F1" stroke-width="2" width="100" x="215" y="655" /><rect fill="#6366F1" height="26" width="4" x="215" y="661" /><text fill="#1E293B" font-family="system-ui, -apple-system, sans-serif" font-size="13px" font-weight="600" x="229" y="672">S3 Artifacts</text><text fill="#64748B" font-family="system-ui, sans-serif" font-size="11px" x="229" y="686">Object Lock</text></g><circle cx="340" cy="670" fill="#F97316" r="12" /><text fill="white" font-family="monospace" font-size="12px" font-weight="700" x="336" y="675">3</text><g><rect fill="#E2E8F0" height="38" rx="6" ry="6" width="90" x="362" y="657" /><rect fill="#ECFDF5" height="38" rx="6" ry="6" stroke="#10B981" stroke-width="2" width="90" x="360" y="655" /><rect fill="#10B981" height="26" width="4" x="360" y="661" /><text fill="#1E293B" font-family="system-ui, -apple-system, sans-serif" font-size="13px" font-weight="600" x="374" y="672">Lambda</text><text fill="#64748B" font-family="system-ui, sans-serif" font-size="11px" x="374" y="686">S3 trigger</text></g><circle cx="475" cy="670" fill="#F97316" r="12" /><text fill="white" font-family="monospace" font-size="12px" font-weight="700" x="471" y="675">4</text><g><rect fill="#E2E8F0" height="38" rx="6" ry="6" width="110" x="497" y="657" /><rect fill="#FFF7ED" height="38" rx="6" ry="6" stroke="#F97316" stroke-width="2" width="110" x="495" y="655" /><rect fill="#F97316" height="26" width="4" x="495" y="661" /><text fill="#1E293B" font-family="system-ui, -apple-system, sans-serif" font-size="13px" font-weight="600" x="509" y="672">ECS Fargate</text><text fill="#64748B" font-family="system-ui, sans-serif" font-size="11px" x="509" y="686">Batch task</text></g><circle cx="630" cy="670" fill="#F97316" r="12" /><text fill="white" font-family="monospace" font-size="12px" font-weight="700" x="626" y="675">5</text><g><rect fill="#E2E8F0" height="38" rx="6" ry="6" width="90" x="652" y="657" /><rect fill="#ECFDF5" height="38" rx="6" ry="6" stroke="#10B981" stroke-width="2" width="90" x="650" y="655" /><rect fill="#10B981" height="26" width="4" x="650" y="661" /><text fill="#1E293B" font-family="system-ui, -apple-system, sans-serif" font-size="13px" font-weight="600" x="664" y="672">Validation</text><text fill="#64748B" font-family="system-ui, sans-serif" font-size="11px" x="664" y="686">Row by row</text></g><circle cx="765" cy="670" fill="#F97316" r="12" /><text fill="white" font-family="monospace" font-size="12px" font-weight="700" x="761" y="675">6</text><g><ellipse cx="812" cy="662" fill="#E2E8F0" rx="20" ry="5" /><rect fill="#E2E8F0" height="40" width="40" x="792" y="662" /><rect fill="#FFFBEB" height="40" width="40" x="790" y="660" /><line stroke="#F59E0B" stroke-width="2" x1="790" x2="790" y1="660" y2="700" /><line stroke="#F59E0B" stroke-width="2" x1="830" x2="830" y1="660" y2="700" /><ellipse cx="810" cy="660" fill="#FFFBEB" rx="20" ry="5" stroke="#F59E0B" stroke-width="2" /><ellipse cx="810" cy="700" fill="#FFFBEB" rx="20" ry="5" stroke="#F59E0B" stroke-width="2" /><text fill="#1E293B" font-family="system-ui, sans-serif" font-size="12px" font-weight="600" x="775" y="723">PostgreSQL</text></g><circle cx="890" cy="670" fill="#F97316" r="12" /><text fill="white" font-family="monospace" font-size="12px" font-weight="700" x="886" y="675">7</text><g><rect fill="#E2E8F0" height="35" rx="6" ry="6" width="80" x="912" y="657" /><rect fill="#FEF2F2" height="35" rx="6" ry="6" stroke="#EF4444" stroke-width="2" width="80" x="910" y="655" /><rect fill="#EF4444" height="23" width="4" x="910" y="661" /><text fill="#1E293B" font-family="system-ui, -apple-system, sans-serif" font-size="13px" font-weight="600" x="924" y="670">Audit</text><text fill="#64748B" font-family="system-ui, sans-serif" font-size="11px" x="924" y="684">Batch entry</text></g><g><rect fill="#E2E8F0" height="35" rx="6" ry="6" width="80" x="912" y="697" /><rect fill="#F5F3FF" height="35" rx="6" ry="6" stroke="#8B5CF6" stroke-width="2" width="80" x="910" y="695" /><rect fill="#8B5CF6" height="23" width="4" x="910" y="701" /><text fill="#1E293B" font-family="system-ui, -apple-system, sans-serif" font-size="13px" font-weight="600" x="924" y="710">Notify</text><text fill="#64748B" font-family="system-ui, sans-serif" font-size="11px" x="924" y="724">Complete</text></g><text fill="#94A3B8" font-family="system-ui, sans-serif" font-size="9px" x="495" y="705">2 vCPU, 4GB RAM</text><g><line marker-end="url(#arrow_170_672_195_672)" stroke="#F97316" stroke-width="2" x1="170" x2="195" y1="672" y2="672" /></g><g><line marker-end="url(#arrow_315_672_340_672)" stroke="#F97316" stroke-width="2" x1="315" x2="340" y1="672" y2="672" /></g><g><line marker-end="url(#arrow_450_672_475_672)" stroke="#F97316" stroke-width="2" x1="450" x2="475" y1="672" y2="672" /></g><g><line marker-end="url(#arrow_605_672_630_672)" stroke="#F97316" stroke-width="2" x1="605" x2="630" y1="672" y2="672" /></g><g><line marker-end="url(#arrow_740_672_765_672)" stroke="#F97316" stroke-width="2" x1="740" x2="765" y1="672" y2="672" /></g><g><line marker-end="url(#arrow_840_665_910_672)" stroke="#F97316" stroke-width="2" x1="840" x2="910" y1="665" y2="672" /></g><g><line marker-end="url(#arrow_840_690_910_712)" stroke="#F97316" stroke-width="2" x1="840" x2="910" y1="690" y2="712" /></g><text fill="#64748B" font-family="system-ui, sans-serif" font-size="10px" x="60" y="760">CSV → S3 → Lambda trigger → ECS Fargate (1M+ rows) → Validate → Insert → Audit + notify</text><rect fill="white" height="70" rx="8" ry="8" stroke="#CBD5E1" stroke-width="1" width="1100" x="40" y="800" /><text fill="#1E293B" font-family="system-ui, sans-serif" font-size="12px" font-weight="600" x="60" y="825">Component Types</text><rect fill="#F1F5F9" height="15" rx="3" ry="3" stroke="#1E293B" stroke-width="2" width="22" x="60" y="838" /><text fill="#1E293B" font-family="system-ui, sans-serif" font-size="10px" x="88" y="850">User Interface</text><rect fill="#ECFDF5" height="15" rx="3" ry="3" stroke="#10B981" stroke-width="2" width="22" x="190" y="838" /><text fill="#1E293B" font-family="system-ui, sans-serif" font-size="10px" x="218" y="850">App Logic</text><rect fill="#ECFEFF" height="15" rx="3" ry="3" stroke="#06B6D4" stroke-width="2" width="22" x="320" y="838" /><text fill="#1E293B" font-family="system-ui, sans-serif" font-size="10px" x="348" y="850">Cache (Redis)</text><rect fill="#EEF2FF" height="15" rx="3" ry="3" stroke="#6366F1" stroke-width="2" width="22" x="450" y="838" /><text fill="#1E293B" font-family="system-ui, sans-serif" font-size="10px" x="478" y="850">Object Storage</text><rect fill="#F5F3FF" height="15" rx="3" ry="3" stroke="#8B5CF6" stroke-width="2" width="22" x="580" y="838" /><text fill="#1E293B" font-family="system-ui, sans-serif" font-size="10px" x="608" y="850">Async</text><rect fill="#FEF2F2" height="15" rx="3" ry="3" stroke="#EF4444" stroke-width="2" width="22" x="710" y="838" /><text fill="#1E293B" font-family="system-ui, sans-serif" font-size="10px" x="738" y="850">Audit</text><rect fill="#FEF2F2" height="15" rx="3" ry="3" stroke="#DC2626" stroke-width="2" width="22" x="840" y="838" /><text fill="#1E293B" font-family="system-ui, sans-serif" font-size="10px" x="868" y="850">DLQ</text><rect fill="#FFF7ED" height="15" rx="3" ry="3" stroke="#F97316" stroke-width="2" width="22" x="970" y="838" /><text fill="#1E293B" font-family="system-ui, sans-serif" font-size="10px" x="998" y="850">Batch</text><text fill="#94A3B8" font-family="monospace" font-size="10px" x="40" y="930">Redis caching · ECS Fargate batch · DLQ · S3 WORM archive</text></svg>