<?xml version="1.0" encoding="utf-8" ?>
<svg baseProfile="full" height="800px" version="1.1" width="1200px" xmlns="http://www.w3.org/2000/svg" xmlns:ev="http://www.w3.org/2001/xml-events" xmlns:xlink="http://www.w3.org/1999/xlink"><defs><marker id="arrow_180_190_320_115" markerHeight="10" markerWidth="10" orient="auto" refX="10" refY="5"><path d="M0,0 L10,5 L0,10 Z" fill="#CBD5E1" /></marker><marker id="arrow_440_115_460_115" markerHeight="10" markerWidth="10" orient="auto" refX="10" refY="5"><path d="M0,0 L10,5 L0,10 Z" fill="#CBD5E1" /></marker><marker id="arrow_520_140_430_200" markerHeight="10" markerWidth="10" orient="auto" refX="10" refY="5"><path d="M0,0 L10,5 L0,10 Z" fill="#CBD5E1" /></marker><marker id="arrow_430_270_410_300" markerHeight="10" markerWidth="10" orient="auto" refX="10" refY="5"><path d="M0,0 L10,5 L0,10 Z" fill="#CBD5E1" /></marker><marker id="arrow_480_325_540_340" markerHeight="10" markerWidth="10" orient="auto" refX="10" refY="5"><path d="M0,0 L10,5 L0,10 Z" fill="#CBD5E1" /></marker><marker id="arrow_520_220_700_175" markerHeight="10" markerWidth="10" orient="auto" refX="10" refY="5"><path d="M0,0 L10,5 L0,10 Z" fill="#CBD5E1" /></marker><marker id="arrow_520_240_700_245" markerHeight="10" markerWidth="10" orient="auto" refX="10" refY="5"><path d="M0,0 L10,5 L0,10 Z" fill="#CBD5E1" /></marker><marker id="arrow_840_245_860_245" markerHeight="10" markerWidth="10" orient="auto" refX="10" refY="5"><path d="M0,0 L10,5 L0,10 Z" fill="#CBD5E1" /></marker></defs><rect fill="#FAFBFC" height="100%" width="100%" x="0" y="0" /><text fill="#1E293B" font-family="system-ui, sans-serif" font-size="24px" font-weight="700" x="40" y="35">Solstice Platform Architecture</text><text fill="#64748B" font-family="system-ui, sans-serif" font-size="14px" x="40" y="55">AWS Serverless Infrastructure — ca-central-1</text><rect fill="#F8FAFC" height="680" rx="12" ry="12" stroke="#CBD5E1" stroke-width="2" width="870" x="290" y="70" /><text fill="#64748B" font-family="monospace" font-size="12px" font-weight="600" x="310" y="95">AWS ca-central-1</text><text fill="#94A3B8" font-family="monospace" font-size="10px" x="420" y="95">Canadian Data Residency</text><rect fill="#F1F5F9" height="300" rx="10" ry="10" stroke="#94A3B8" stroke-width="2" width="350" x="310" y="150" /><text fill="#64748B" font-family="monospace" font-size="11px" font-weight="600" x="325" y="175">VPC — Private Subnets</text><g><rect fill="#E2E8F0" height="60" rx="6" ry="6" width="140" x="42" y="162" /><rect fill="#F1F5F9" height="60" rx="6" ry="6" stroke="#1E293B" stroke-width="2" width="140" x="40" y="160" /><rect fill="#1E293B" height="48" width="4" x="40" y="166" /><text fill="#1E293B" font-family="system-ui, -apple-system, sans-serif" font-size="14px" font-weight="600" x="54" y="188">Users &amp; Admins</text><text fill="#64748B" font-family="system-ui, sans-serif" font-size="12px" x="54" y="204">Web browsers</text></g><g><rect fill="#E2E8F0" height="50" rx="6" ry="6" width="120" x="322" y="92" /><rect fill="#EFF6FF" height="50" rx="6" ry="6" stroke="#3B82F6" stroke-width="2" width="120" x="320" y="90" /><rect fill="#3B82F6" height="38" width="4" x="320" y="96" /><text fill="#1E293B" font-family="system-ui, -apple-system, sans-serif" font-size="14px" font-weight="600" x="334" y="113">AWS WAF</text><text fill="#64748B" font-family="system-ui, sans-serif" font-size="12px" x="334" y="129">Firewall</text></g><g><rect fill="#E2E8F0" height="50" rx="6" ry="6" width="120" x="462" y="92" /><rect fill="#EFF6FF" height="50" rx="6" ry="6" stroke="#3B82F6" stroke-width="2" width="120" x="460" y="90" /><rect fill="#3B82F6" height="38" width="4" x="460" y="96" /><text fill="#1E293B" font-family="system-ui, -apple-system, sans-serif" font-size="14px" font-weight="600" x="474" y="113">CloudFront</text><text fill="#64748B" font-family="system-ui, sans-serif" font-size="12px" x="474" y="129">CDN &amp; Edge</text></g><g><rect fill="#E2E8F0" height="70" rx="6" ry="6" width="180" x="342" y="202" /><rect fill="#ECFDF5" height="70" rx="6" ry="6" stroke="#10B981" stroke-width="2" width="180" x="340" y="200" /><rect fill="#10B981" height="58" width="4" x="340" y="206" /><text fill="#1E293B" font-family="system-ui, -apple-system, sans-serif" font-size="14px" font-weight="600" x="354" y="233">Lambda</text><text fill="#64748B" font-family="system-ui, sans-serif" font-size="12px" x="354" y="249">TanStack Start App + API</text></g><g><rect fill="#E2E8F0" height="50" rx="6" ry="6" width="140" x="342" y="302" /><rect fill="#ECFDF5" height="50" rx="6" ry="6" stroke="#10B981" stroke-width="2" width="140" x="340" y="300" /><rect fill="#10B981" height="38" width="4" x="340" y="306" /><text fill="#1E293B" font-family="system-ui, -apple-system, sans-serif" font-size="14px" font-weight="600" x="354" y="323">RDS Proxy</text><text fill="#64748B" font-family="system-ui, sans-serif" font-size="12px" x="354" y="339">Connection pool</text></g><g><ellipse cx="582" cy="302" fill="#E2E8F0" rx="40" ry="10" /><rect fill="#E2E8F0" height="80" width="80" x="542" y="302" /><rect fill="#FFFBEB" height="80" width="80" x="540" y="300" /><line stroke="#F59E0B" stroke-width="2" x1="540" x2="540" y1="300" y2="380" /><line stroke="#F59E0B" stroke-width="2" x1="620" x2="620" y1="300" y2="380" /><ellipse cx="580" cy="300" fill="#FFFBEB" rx="40" ry="10" stroke="#F59E0B" stroke-width="2" /><ellipse cx="580" cy="380" fill="#FFFBEB" rx="40" ry="10" stroke="#F59E0B" stroke-width="2" /><text fill="#1E293B" font-family="system-ui, sans-serif" font-size="14px" font-weight="600" x="540" y="410">RDS PostgreSQL</text></g><g><rect fill="#E2E8F0" height="50" rx="6" ry="6" width="140" x="702" y="152" /><rect fill="#FFFBEB" height="50" rx="6" ry="6" stroke="#F59E0B" stroke-width="2" width="140" x="700" y="150" /><rect fill="#F59E0B" height="38" width="4" x="700" y="156" /><text fill="#1E293B" font-family="system-ui, -apple-system, sans-serif" font-size="14px" font-weight="600" x="714" y="173">S3</text><text fill="#64748B" font-family="system-ui, sans-serif" font-size="12px" x="714" y="189">Object Storage</text></g><g><rect fill="#E2E8F0" height="50" rx="6" ry="6" width="140" x="702" y="222" /><rect fill="#F5F3FF" height="50" rx="6" ry="6" stroke="#8B5CF6" stroke-width="2" width="140" x="700" y="220" /><rect fill="#8B5CF6" height="38" width="4" x="700" y="226" /><text fill="#1E293B" font-family="system-ui, -apple-system, sans-serif" font-size="14px" font-weight="600" x="714" y="243">SQS</text><text fill="#64748B" font-family="system-ui, sans-serif" font-size="12px" x="714" y="259">Message Queue</text></g><g><rect fill="#E2E8F0" height="50" rx="6" ry="6" width="140" x="702" y="292" /><rect fill="#F5F3FF" height="50" rx="6" ry="6" stroke="#8B5CF6" stroke-width="2" width="140" x="700" y="290" /><rect fill="#8B5CF6" height="38" width="4" x="700" y="296" /><text fill="#1E293B" font-family="system-ui, -apple-system, sans-serif" font-size="14px" font-weight="600" x="714" y="313">EventBridge</text><text fill="#64748B" font-family="system-ui, sans-serif" font-size="12px" x="714" y="329">Scheduler</text></g><g><rect fill="#E2E8F0" height="50" rx="6" ry="6" width="120" x="862" y="222" /><rect fill="#F5F3FF" height="50" rx="6" ry="6" stroke="#8B5CF6" stroke-width="2" width="120" x="860" y="220" /><rect fill="#8B5CF6" height="38" width="4" x="860" y="226" /><text fill="#1E293B" font-family="system-ui, -apple-system, sans-serif" font-size="14px" font-weight="600" x="874" y="243">SES</text><text fill="#64748B" font-family="system-ui, sans-serif" font-size="12px" x="874" y="259">Email Service</text></g><g><rect fill="#E2E8F0" height="50" rx="6" ry="6" width="120" x="862" y="152" /><rect fill="#F8FAFC" height="50" rx="6" ry="6" stroke="#64748B" stroke-width="2" width="120" x="860" y="150" /><rect fill="#64748B" height="38" width="4" x="860" y="156" /><text fill="#1E293B" font-family="system-ui, -apple-system, sans-serif" font-size="14px" font-weight="600" x="874" y="173">KMS</text><text fill="#64748B" font-family="system-ui, sans-serif" font-size="12px" x="874" y="189">Encryption</text></g><g><rect fill="#E2E8F0" height="50" rx="6" ry="6" width="130" x="702" y="382" /><rect fill="#F8FAFC" height="50" rx="6" ry="6" stroke="#64748B" stroke-width="2" width="130" x="700" y="380" /><rect fill="#64748B" height="38" width="4" x="700" y="386" /><text fill="#1E293B" font-family="system-ui, -apple-system, sans-serif" font-size="14px" font-weight="600" x="714" y="403">CloudWatch</text><text fill="#64748B" font-family="system-ui, sans-serif" font-size="12px" x="714" y="419">Logs &amp; Alarms</text></g><g><rect fill="#E2E8F0" height="50" rx="6" ry="6" width="130" x="852" y="382" /><rect fill="#F8FAFC" height="50" rx="6" ry="6" stroke="#64748B" stroke-width="2" width="130" x="850" y="380" /><rect fill="#64748B" height="38" width="4" x="850" y="386" /><text fill="#1E293B" font-family="system-ui, -apple-system, sans-serif" font-size="14px" font-weight="600" x="864" y="403">CloudTrail</text><text fill="#64748B" font-family="system-ui, sans-serif" font-size="12px" x="864" y="419">API Audit</text></g><g><rect fill="#E2E8F0" height="50" rx="6" ry="6" width="130" x="1002" y="382" /><rect fill="#F8FAFC" height="50" rx="6" ry="6" stroke="#64748B" stroke-width="2" width="130" x="1000" y="380" /><rect fill="#64748B" height="38" width="4" x="1000" y="386" /><text fill="#1E293B" font-family="system-ui, -apple-system, sans-serif" font-size="14px" font-weight="600" x="1014" y="403">GuardDuty</text><text fill="#64748B" font-family="system-ui, sans-serif" font-size="12px" x="1014" y="419">Threats</text></g><g><line marker-end="url(#arrow_180_190_320_115)" stroke="#CBD5E1" stroke-width="2" x1="180" x2="320" y1="190" y2="115" /></g><g><line marker-end="url(#arrow_440_115_460_115)" stroke="#CBD5E1" stroke-width="2" x1="440" x2="460" y1="115" y2="115" /></g><g><line marker-end="url(#arrow_520_140_430_200)" stroke="#CBD5E1" stroke-width="2" x1="520" x2="430" y1="140" y2="200" /></g><g><line marker-end="url(#arrow_430_270_410_300)" stroke="#CBD5E1" stroke-width="2" x1="430" x2="410" y1="270" y2="300" /></g><g><line marker-end="url(#arrow_480_325_540_340)" stroke="#CBD5E1" stroke-width="2" x1="480" x2="540" y1="325" y2="340" /></g><g><line marker-end="url(#arrow_520_220_700_175)" stroke="#CBD5E1" stroke-width="2" x1="520" x2="700" y1="220" y2="175" /></g><g><line marker-end="url(#arrow_520_240_700_245)" stroke="#CBD5E1" stroke-width="2" x1="520" x2="700" y1="240" y2="245" /></g><g><line marker-end="url(#arrow_840_245_860_245)" stroke="#CBD5E1" stroke-width="2" x1="840" x2="860" y1="245" y2="245" /></g><rect fill="white" height="220" rx="8" ry="8" stroke="#CBD5E1" stroke-width="1" width="200" x="40" y="500" /><text fill="#1E293B" font-family="system-ui, sans-serif" font-size="14px" font-weight="600" x="60" y="525">Legend</text><rect fill="#EFF6FF" height="20" rx="4" ry="4" stroke="#3B82F6" stroke-width="2" width="30" x="55" y="550" /><text fill="#1E293B" font-family="system-ui, sans-serif" font-size="12px" x="95" y="565">Edge / CDN</text><rect fill="#ECFDF5" height="20" rx="4" ry="4" stroke="#10B981" stroke-width="2" width="30" x="55" y="582" /><text fill="#1E293B" font-family="system-ui, sans-serif" font-size="12px" x="95" y="597">Compute</text><rect fill="#FFFBEB" height="20" rx="4" ry="4" stroke="#F59E0B" stroke-width="2" width="30" x="55" y="614" /><text fill="#1E293B" font-family="system-ui, sans-serif" font-size="12px" x="95" y="629">Data Stores</text><rect fill="#F5F3FF" height="20" rx="4" ry="4" stroke="#8B5CF6" stroke-width="2" width="30" x="55" y="646" /><text fill="#1E293B" font-family="system-ui, sans-serif" font-size="12px" x="95" y="661">Async / Events</text><rect fill="#F8FAFC" height="20" rx="4" ry="4" stroke="#64748B" stroke-width="2" width="30" x="55" y="678" /><text fill="#1E293B" font-family="system-ui, sans-serif" font-size="12px" x="95" y="693">Security</text><text fill="#94A3B8" font-family="monospace" font-size="10px" x="40" y="780">Solstice Platform · Austin Wallace Tech</text></svg>