<?xml version="1.0" encoding="utf-8" ?>
<svg baseProfile="full" height="850px" version="1.1" width="1200px" xmlns="http://www.w3.org/2000/svg" xmlns:ev="http://www.w3.org/2001/xml-events" xmlns:xlink="http://www.w3.org/1999/xlink"><defs><marker id="arrow_180_185_300_115" markerHeight="6" markerWidth="6" orient="auto" refX="6" refY="3"><path d="M0,0 L6,3 L0,6 Z" fill="#CBD5E1" /></marker><marker id="arrow_410_115_420_115" markerHeight="6" markerWidth="6" orient="auto" refX="6" refY="3"><path d="M0,0 L6,3 L0,6 Z" fill="#CBD5E1" /></marker><marker id="arrow_530_115_540_115" markerHeight="6" markerWidth="6" orient="auto" refX="6" refY="3"><path d="M0,0 L6,3 L0,6 Z" fill="#CBD5E1" /></marker><marker id="arrow_470_200_490_200" markerHeight="6" markerWidth="6" orient="auto" refX="6" refY="3"><path d="M0,0 L6,3 L0,6 Z" fill="#CBD5E1" /></marker><marker id="arrow_390_230_380_260" markerHeight="6" markerWidth="6" orient="auto" refX="6" refY="3"><path d="M0,0 L6,3 L0,6 Z" fill="#CBD5E1" /></marker><marker id="arrow_440_280_510_300" markerHeight="6" markerWidth="6" orient="auto" refX="6" refY="3"><path d="M0,0 L6,3 L0,6 Z" fill="#CBD5E1" /></marker><marker id="arrow_poly_0" markerHeight="6" markerWidth="6" orient="auto" refX="6" refY="3"><path d="M0,0 L6,3 L0,6 Z" fill="#CBD5E1" /></marker><marker id="arrow_600_300_720_212" markerHeight="6" markerWidth="6" orient="auto" refX="6" refY="3"><path d="M0,0 L6,3 L0,6 Z" fill="#CBD5E1" /></marker><marker id="arrow_850_152_880_152" markerHeight="6" markerWidth="6" orient="auto" refX="6" refY="3"><path d="M0,0 L6,3 L0,6 Z" fill="#CBD5E1" /></marker></defs><rect fill="#FAFBFC" height="100%" width="100%" x="0" y="0" /><text fill="#1E293B" font-family="system-ui, sans-serif" font-size="24px" font-weight="700" x="40" y="35">Solstice Platform Architecture</text><text fill="#64748B" font-family="system-ui, sans-serif" font-size="14px" x="40" y="55">AWS Serverless Infrastructure — ca-central-1 (Canadian Data Residency)</text><rect fill="#F8FAFC" height="720" rx="12" ry="12" stroke="#CBD5E1" stroke-width="2" width="900" x="270" y="70" /><text fill="#64748B" font-family="monospace" font-size="12px" font-weight="600" x="290" y="95">AWS ca-central-1</text><rect fill="#F1F5F9" height="250" rx="10" ry="10" stroke="#94A3B8" stroke-width="2" width="400" x="290" y="130" /><text fill="#64748B" font-family="monospace" font-size="11px" font-weight="600" x="305" y="155">VPC — Private Subnets</text><g><rect fill="#E2E8F0" height="55" rx="6" ry="6" width="140" x="42" y="162" /><rect fill="#F1F5F9" height="55" rx="6" ry="6" stroke="#1E293B" stroke-width="2" width="140" x="40" y="160" /><rect fill="#1E293B" height="43" width="4" x="40" y="166" /><text fill="#1E293B" font-family="system-ui, -apple-system, sans-serif" font-size="13px" font-weight="600" x="54" y="185">Users &amp; Admins</text><text fill="#64748B" font-family="system-ui, sans-serif" font-size="11px" x="54" y="199">Web browsers</text></g><g><rect fill="#E2E8F0" height="42" rx="6" ry="6" width="110" x="302" y="92" /><rect fill="#EFF6FF" height="42" rx="6" ry="6" stroke="#3B82F6" stroke-width="2" width="110" x="300" y="90" /><rect fill="#3B82F6" height="30" width="4" x="300" y="96" /><text fill="#1E293B" font-family="system-ui, -apple-system, sans-serif" font-size="13px" font-weight="600" x="314" y="109">AWS WAF v2</text><text fill="#64748B" font-family="system-ui, sans-serif" font-size="11px" x="314" y="123">Firewall</text></g><g><rect fill="#E2E8F0" height="42" rx="6" ry="6" width="110" x="422" y="92" /><rect fill="#EFF6FF" height="42" rx="6" ry="6" stroke="#3B82F6" stroke-width="2" width="110" x="420" y="90" /><rect fill="#3B82F6" height="30" width="4" x="420" y="96" /><text fill="#1E293B" font-family="system-ui, -apple-system, sans-serif" font-size="13px" font-weight="600" x="434" y="109">CloudFront</text><text fill="#64748B" font-family="system-ui, sans-serif" font-size="11px" x="434" y="123">CDN</text></g><g><rect fill="#E2E8F0" height="42" rx="6" ry="6" width="130" x="542" y="92" /><rect fill="#EFF6FF" height="42" rx="6" ry="6" stroke="#3B82F6" stroke-width="2" width="130" x="540" y="90" /><rect fill="#3B82F6" height="30" width="4" x="540" y="96" /><text fill="#1E293B" font-family="system-ui, -apple-system, sans-serif" font-size="13px" font-weight="600" x="554" y="109">Security Headers</text><text fill="#64748B" font-family="system-ui, sans-serif" font-size="11px" x="554" y="123">HSTS, CSP</text></g><g><rect fill="#E2E8F0" height="55" rx="6" ry="6" width="160" x="312" y="177" /><rect fill="#ECFDF5" height="55" rx="6" ry="6" stroke="#10B981" stroke-width="2" width="160" x="310" y="175" /><rect fill="#10B981" height="43" width="4" x="310" y="181" /><text fill="#1E293B" font-family="system-ui, -apple-system, sans-serif" font-size="13px" font-weight="600" x="324" y="200">Lambda</text><text fill="#64748B" font-family="system-ui, sans-serif" font-size="11px" x="324" y="214">TanStack Start API</text></g><g><rect fill="#E2E8F0" height="55" rx="6" ry="6" width="130" x="492" y="177" /><rect fill="#ECFEFF" height="55" rx="6" ry="6" stroke="#06B6D4" stroke-width="2" width="130" x="490" y="175" /><rect fill="#06B6D4" height="43" width="4" x="490" y="181" /><text fill="#1E293B" font-family="system-ui, -apple-system, sans-serif" font-size="13px" font-weight="600" x="504" y="200">Redis</text><text fill="#64748B" font-family="system-ui, sans-serif" font-size="11px" x="504" y="214">Rate Limit/Cache</text></g><g><rect fill="#E2E8F0" height="45" rx="6" ry="6" width="130" x="312" y="262" /><rect fill="#ECFDF5" height="45" rx="6" ry="6" stroke="#10B981" stroke-width="2" width="130" x="310" y="260" /><rect fill="#10B981" height="33" width="4" x="310" y="266" /><text fill="#1E293B" font-family="system-ui, -apple-system, sans-serif" font-size="13px" font-weight="600" x="324" y="280">RDS Proxy</text><text fill="#64748B" font-family="system-ui, sans-serif" font-size="11px" x="324" y="294">Connection pool</text></g><g><ellipse cx="552" cy="268" fill="#E2E8F0" rx="35" ry="8" /><rect fill="#E2E8F0" height="68" width="70" x="517" y="268" /><rect fill="#FFFBEB" height="68" width="70" x="515" y="266" /><line stroke="#F59E0B" stroke-width="2" x1="515" x2="515" y1="266" y2="334" /><line stroke="#F59E0B" stroke-width="2" x1="585" x2="585" y1="266" y2="334" /><ellipse cx="550" cy="266" fill="#FFFBEB" rx="35" ry="8" stroke="#F59E0B" stroke-width="2" /><ellipse cx="550" cy="334" fill="#FFFBEB" rx="35" ry="8" stroke="#F59E0B" stroke-width="2" /><text fill="#1E293B" font-family="system-ui, sans-serif" font-size="11px" font-weight="600" x="518" y="310">PostgreSQL 16</text></g><rect fill="#FFF7ED" height="100" rx="8" ry="8" stroke="#F97316" stroke-width="2" width="400" x="290" y="400" /><text fill="#F97316" font-family="monospace" font-size="11px" font-weight="600" x="310" y="425">ECS Fargate Cluster</text><g><rect fill="#E2E8F0" height="45" rx="6" ry="6" width="150" x="312" y="442" /><rect fill="#FFF7ED" height="45" rx="6" ry="6" stroke="#F97316" stroke-width="2" width="150" x="310" y="440" /><rect fill="#F97316" height="33" width="4" x="310" y="446" /><text fill="#1E293B" font-family="system-ui, -apple-system, sans-serif" font-size="13px" font-weight="600" x="324" y="460">Import Batch Task</text><text fill="#64748B" font-family="system-ui, sans-serif" font-size="11px" x="324" y="474">2 vCPU, 4GB</text></g><g><rect fill="#E2E8F0" height="45" rx="6" ry="6" width="130" x="722" y="132" /><rect fill="#EEF2FF" height="45" rx="6" ry="6" stroke="#6366F1" stroke-width="2" width="130" x="720" y="130" /><rect fill="#6366F1" height="33" width="4" x="720" y="136" /><text fill="#1E293B" font-family="system-ui, -apple-system, sans-serif" font-size="13px" font-weight="600" x="734" y="150">S3 Artifacts</text><text fill="#64748B" font-family="system-ui, sans-serif" font-size="11px" x="734" y="164">Object Lock</text></g><g><rect fill="#E2E8F0" height="45" rx="6" ry="6" width="130" x="722" y="192" /><rect fill="#EEF2FF" height="45" rx="6" ry="6" stroke="#6366F1" stroke-width="2" width="130" x="720" y="190" /><rect fill="#6366F1" height="33" width="4" x="720" y="196" /><text fill="#1E293B" font-family="system-ui, -apple-system, sans-serif" font-size="13px" font-weight="600" x="734" y="210">S3 Audit Archive</text><text fill="#64748B" font-family="system-ui, sans-serif" font-size="11px" x="734" y="224">7yr WORM</text></g><g><rect fill="#E2E8F0" height="45" rx="6" ry="6" width="130" x="722" y="252" /><rect fill="#EEF2FF" height="45" rx="6" ry="6" stroke="#6366F1" stroke-width="2" width="130" x="720" y="250" /><rect fill="#6366F1" height="33" width="4" x="720" y="256" /><text fill="#1E293B" font-family="system-ui, -apple-system, sans-serif" font-size="13px" font-weight="600" x="734" y="270">S3 CloudTrail</text><text fill="#64748B" font-family="system-ui, sans-serif" font-size="11px" x="734" y="284">API logs</text></g><g><rect fill="#E2E8F0" height="45" rx="6" ry="6" width="120" x="882" y="132" /><rect fill="#F5F3FF" height="45" rx="6" ry="6" stroke="#8B5CF6" stroke-width="2" width="120" x="880" y="130" /><rect fill="#8B5CF6" height="33" width="4" x="880" y="136" /><text fill="#1E293B" font-family="system-ui, -apple-system, sans-serif" font-size="13px" font-weight="600" x="894" y="150">SQS Queue</text><text fill="#64748B" font-family="system-ui, sans-serif" font-size="11px" x="894" y="164">Notifications</text></g><g><rect fill="#E2E8F0" height="45" rx="6" ry="6" width="120" x="882" y="192" /><rect fill="#FEF2F2" height="45" rx="6" ry="6" stroke="#DC2626" stroke-width="2" width="120" x="880" y="190" /><rect fill="#DC2626" height="33" width="4" x="880" y="196" /><text fill="#1E293B" font-family="system-ui, -apple-system, sans-serif" font-size="13px" font-weight="600" x="894" y="210">SQS DLQ</text><text fill="#64748B" font-family="system-ui, sans-serif" font-size="11px" x="894" y="224">Dead letters</text></g><g><rect fill="#E2E8F0" height="45" rx="6" ry="6" width="120" x="882" y="252" /><rect fill="#F5F3FF" height="45" rx="6" ry="6" stroke="#8B5CF6" stroke-width="2" width="120" x="880" y="250" /><rect fill="#8B5CF6" height="33" width="4" x="880" y="256" /><text fill="#1E293B" font-family="system-ui, -apple-system, sans-serif" font-size="13px" font-weight="600" x="894" y="270">SES</text><text fill="#64748B" font-family="system-ui, sans-serif" font-size="11px" x="894" y="284">Email</text></g><rect fill="white" height="110" rx="8" ry="8" stroke="#10B981" stroke-width="1" width="280" x="720" y="320" /><text fill="#10B981" font-family="monospace" font-size="11px" font-weight="600" x="740" y="345">Lambda Cron Jobs</text><g><rect fill="#E2E8F0" height="40" rx="6" ry="6" width="120" x="732" y="362" /><rect fill="#ECFDF5" height="40" rx="6" ry="6" stroke="#10B981" stroke-width="2" width="120" x="730" y="360" /><rect fill="#10B981" height="28" width="4" x="730" y="366" /><text fill="#1E293B" font-family="system-ui, -apple-system, sans-serif" font-size="13px" font-weight="600" x="744" y="378">Notifications</text><text fill="#64748B" font-family="system-ui, sans-serif" font-size="11px" x="744" y="392">every 5 min</text></g><g><rect fill="#E2E8F0" height="40" rx="6" ry="6" width="120" x="862" y="362" /><rect fill="#ECFDF5" height="40" rx="6" ry="6" stroke="#10B981" stroke-width="2" width="120" x="860" y="360" /><rect fill="#10B981" height="28" width="4" x="860" y="366" /><text fill="#1E293B" font-family="system-ui, -apple-system, sans-serif" font-size="13px" font-weight="600" x="874" y="378">Retention</text><text fill="#64748B" font-family="system-ui, sans-serif" font-size="11px" x="874" y="392">daily</text></g><rect fill="white" height="130" rx="8" ry="8" stroke="#64748B" stroke-width="1" width="430" x="720" y="450" /><text fill="#64748B" font-family="monospace" font-size="11px" font-weight="600" x="740" y="475">Security &amp; Monitoring</text><g><rect fill="#E2E8F0" height="40" rx="6" ry="6" width="100" x="732" y="492" /><rect fill="#F8FAFC" height="40" rx="6" ry="6" stroke="#64748B" stroke-width="2" width="100" x="730" y="490" /><rect fill="#64748B" height="28" width="4" x="730" y="496" /><text fill="#1E293B" font-family="system-ui, -apple-system, sans-serif" font-size="13px" font-weight="600" x="744" y="508">CloudWatch</text><text fill="#64748B" font-family="system-ui, sans-serif" font-size="11px" x="744" y="522">Dashboard</text></g><g><rect fill="#E2E8F0" height="40" rx="6" ry="6" width="100" x="842" y="492" /><rect fill="#F8FAFC" height="40" rx="6" ry="6" stroke="#64748B" stroke-width="2" width="100" x="840" y="490" /><rect fill="#64748B" height="28" width="4" x="840" y="496" /><text fill="#1E293B" font-family="system-ui, -apple-system, sans-serif" font-size="13px" font-weight="600" x="854" y="508">CloudTrail</text><text fill="#64748B" font-family="system-ui, sans-serif" font-size="11px" x="854" y="522">CIS Alarms</text></g><g><rect fill="#E2E8F0" height="40" rx="6" ry="6" width="100" x="952" y="492" /><rect fill="#F8FAFC" height="40" rx="6" ry="6" stroke="#64748B" stroke-width="2" width="100" x="950" y="490" /><rect fill="#64748B" height="28" width="4" x="950" y="496" /><text fill="#1E293B" font-family="system-ui, -apple-system, sans-serif" font-size="13px" font-weight="600" x="964" y="508">GuardDuty</text><text fill="#64748B" font-family="system-ui, sans-serif" font-size="11px" x="964" y="522">Threats</text></g><g><rect fill="#E2E8F0" height="40" rx="6" ry="6" width="80" x="1062" y="492" /><rect fill="#F5F3FF" height="40" rx="6" ry="6" stroke="#8B5CF6" stroke-width="2" width="80" x="1060" y="490" /><rect fill="#8B5CF6" height="28" width="4" x="1060" y="496" /><text fill="#1E293B" font-family="system-ui, -apple-system, sans-serif" font-size="13px" font-weight="600" x="1074" y="508">SNS</text><text fill="#64748B" font-family="system-ui, sans-serif" font-size="11px" x="1074" y="522">Alerts</text></g><g><rect fill="#E2E8F0" height="45" rx="6" ry="6" width="100" x="1022" y="132" /><rect fill="#F8FAFC" height="45" rx="6" ry="6" stroke="#64748B" stroke-width="2" width="100" x="1020" y="130" /><rect fill="#64748B" height="33" width="4" x="1020" y="136" /><text fill="#1E293B" font-family="system-ui, -apple-system, sans-serif" font-size="13px" font-weight="600" x="1034" y="150">KMS</text><text fill="#64748B" font-family="system-ui, sans-serif" font-size="11px" x="1034" y="164">Encryption</text></g><g><line marker-end="url(#arrow_180_185_300_115)" stroke="#CBD5E1" stroke-width="2" x1="180" x2="300" y1="185" y2="115" /></g><g><line marker-end="url(#arrow_410_115_420_115)" stroke="#CBD5E1" stroke-width="2" x1="410" x2="420" y1="115" y2="115" /></g><g><line marker-end="url(#arrow_530_115_540_115)" stroke="#CBD5E1" stroke-width="2" x1="530" x2="540" y1="115" y2="115" /></g><g><line marker-end="url(#arrow_470_200_490_200)" stroke="#CBD5E1" stroke-width="2" x1="470" x2="490" y1="200" y2="200" /></g><g><line marker-end="url(#arrow_390_230_380_260)" stroke="#CBD5E1" stroke-width="2" x1="390" x2="380" y1="230" y2="260" /></g><g><line marker-end="url(#arrow_440_280_510_300)" stroke="#CBD5E1" stroke-width="2" x1="440" x2="510" y1="280" y2="300" /></g><g><polyline fill="none" marker-end="url(#arrow_poly_0)" points="470,195 470,175 690,175 690,152 720,152" stroke="#CBD5E1" stroke-width="2" /></g><g><line marker-end="url(#arrow_600_300_720_212)" stroke="#CBD5E1" stroke-width="2" x1="600" x2="720" y1="300" y2="212" /></g><g><line marker-end="url(#arrow_850_152_880_152)" stroke="#CBD5E1" stroke-width="2" x1="850" x2="880" y1="152" y2="152" /></g><rect fill="white" height="200" rx="8" ry="8" stroke="#CBD5E1" stroke-width="1" width="200" x="40" y="600" /><text fill="#1E293B" font-family="system-ui, sans-serif" font-size="14px" font-weight="600" x="60" y="625">Legend</text><rect fill="#EFF6FF" height="16" rx="3" ry="3" stroke="#3B82F6" stroke-width="2" width="25" x="55" y="645" /><text fill="#1E293B" font-family="system-ui, sans-serif" font-size="11px" x="90" y="657">Edge / CDN</text><rect fill="#ECFDF5" height="16" rx="3" ry="3" stroke="#10B981" stroke-width="2" width="25" x="55" y="669" /><text fill="#1E293B" font-family="system-ui, sans-serif" font-size="11px" x="90" y="681">Compute</text><rect fill="#ECFEFF" height="16" rx="3" ry="3" stroke="#06B6D4" stroke-width="2" width="25" x="55" y="693" /><text fill="#1E293B" font-family="system-ui, sans-serif" font-size="11px" x="90" y="705">Cache (Redis)</text><rect fill="#FFFBEB" height="16" rx="3" ry="3" stroke="#F59E0B" stroke-width="2" width="25" x="55" y="717" /><text fill="#1E293B" font-family="system-ui, sans-serif" font-size="11px" x="90" y="729">Data Stores</text><rect fill="#EEF2FF" height="16" rx="3" ry="3" stroke="#6366F1" stroke-width="2" width="25" x="55" y="741" /><text fill="#1E293B" font-family="system-ui, sans-serif" font-size="11px" x="90" y="753">Object Storage</text><rect fill="#F5F3FF" height="16" rx="3" ry="3" stroke="#8B5CF6" stroke-width="2" width="25" x="55" y="765" /><text fill="#1E293B" font-family="system-ui, sans-serif" font-size="11px" x="90" y="777">Async / Events</text><text fill="#94A3B8" font-family="monospace" font-size="10px" x="40" y="830">Solstice Platform · Redis + ECS Fargate + Object Lock</text></svg>