<?xml version="1.0" encoding="utf-8" ?>
<svg baseProfile="full" height="700px" version="1.1" width="1200px" xmlns="http://www.w3.org/2000/svg" xmlns:ev="http://www.w3.org/2001/xml-events" xmlns:xlink="http://www.w3.org/1999/xlink"><defs><marker id="arrow_240_140_280_140" markerHeight="10" markerWidth="10" orient="auto" refX="10" refY="5"><path d="M0,0 L10,5 L0,10 Z" fill="#CBD5E1" /></marker><marker id="arrow_240_170_760_170" markerHeight="10" markerWidth="10" orient="auto" refX="10" refY="5"><path d="M0,0 L10,5 L0,10 Z" fill="#CBD5E1" /></marker></defs><rect fill="#FAFBFC" height="100%" width="100%" x="0" y="0" /><text fill="#1E293B" font-family="system-ui, sans-serif" font-size="24px" font-weight="700" x="40" y="35">Multi-Tenant Architecture</text><text fill="#64748B" font-family="system-ui, sans-serif" font-size="14px" x="40" y="55">Tenant Isolation · Organization Hierarchy · Data Segregation</text><rect fill="#F1F5F9" height="120" rx="10" ry="10" stroke="#1E293B" stroke-width="2" width="200" x="40" y="80" /><text fill="#1E293B" font-family="system-ui, sans-serif" font-size="14px" font-weight="600" x="55" y="105">Solstice Platform</text><text fill="#64748B" font-family="system-ui, sans-serif" font-size="11px" x="55" y="125">Single codebase</text><g><rect fill="#E2E8F0" height="45" rx="6" ry="6" width="170" x="57" y="142" /><rect fill="#F8FAFC" height="45" rx="6" ry="6" stroke="#64748B" stroke-width="2" width="170" x="55" y="140" /><rect fill="#64748B" height="33" width="4" x="55" y="146" /><text fill="#1E293B" font-family="system-ui, -apple-system, sans-serif" font-size="14px" font-weight="600" x="69" y="160">Tenant Router</text><text fill="#64748B" font-family="system-ui, sans-serif" font-size="12px" x="69" y="176">TENANT_KEY</text></g><rect fill="#DBEAFE" height="520" rx="12" ry="12" stroke="#3B82F6" stroke-dasharray="8,4" stroke-width="2" width="450" x="280" y="80" /><rect fill="#3B82F6" height="22" rx="4" ry="4" width="100" x="290" y="68" /><text fill="white" font-family="monospace" font-size="11px" font-weight="600" x="305" y="84">viaSport</text><text fill="#3B82F6" font-family="system-ui, sans-serif" font-size="16px" font-weight="700" x="300" y="120">viaSport BC</text><rect fill="white" height="150" rx="6" ry="6" stroke="#3B82F6" stroke-width="1" width="200" x="300" y="145" /><text fill="#1E293B" font-family="system-ui, sans-serif" font-size="12px" font-weight="600" x="315" y="168">RBAC Roles</text><rect fill="#1E40AF" height="20" rx="3" ry="3" width="60" x="315" y="180" /><text fill="white" font-family="monospace" font-size="10px" x="325" y="194">Owner</text><rect fill="#3B82F6" height="20" rx="3" ry="3" width="60" x="315" y="206" /><text fill="white" font-family="monospace" font-size="10px" x="325" y="220">Admin</text><rect fill="#60A5FA" height="20" rx="3" ry="3" width="60" x="315" y="232" /><text fill="white" font-family="monospace" font-size="10px" x="325" y="246">Reporter</text><rect fill="#93C5FD" height="20" rx="3" ry="3" width="60" x="315" y="258" /><text fill="white" font-family="monospace" font-size="10px" x="325" y="272">Viewer</text><text fill="#1E293B" font-family="system-ui, sans-serif" font-size="12px" font-weight="600" x="520" y="165">Organization Hierarchy</text><g><rect fill="#E2E8F0" height="40" rx="6" ry="6" width="120" x="522" y="182" /><rect fill="#DBEAFE" height="40" rx="6" ry="6" stroke="#3B82F6" stroke-width="2" width="120" x="520" y="180" /><rect fill="#3B82F6" height="28" width="4" x="520" y="186" /><text fill="#1E293B" font-family="system-ui, -apple-system, sans-serif" font-size="14px" font-weight="600" x="534" y="198">Gov Body</text><text fill="#64748B" font-family="system-ui, sans-serif" font-size="12px" x="534" y="214">Top-level</text></g><g><rect fill="#E2E8F0" height="40" rx="6" ry="6" width="120" x="542" y="242" /><rect fill="#F5F3FF" height="40" rx="6" ry="6" stroke="#8B5CF6" stroke-width="2" width="120" x="540" y="240" /><rect fill="#8B5CF6" height="28" width="4" x="540" y="246" /><text fill="#1E293B" font-family="system-ui, -apple-system, sans-serif" font-size="14px" font-weight="600" x="554" y="258">PSO</text><text fill="#64748B" font-family="system-ui, sans-serif" font-size="12px" x="554" y="274">Provincial</text></g><g><rect fill="#E2E8F0" height="40" rx="6" ry="6" width="120" x="562" y="302" /><rect fill="#FFFBEB" height="40" rx="6" ry="6" stroke="#F59E0B" stroke-width="2" width="120" x="560" y="300" /><rect fill="#F59E0B" height="28" width="4" x="560" y="306" /><text fill="#1E293B" font-family="system-ui, -apple-system, sans-serif" font-size="14px" font-weight="600" x="574" y="318">Club</text><text fill="#64748B" font-family="system-ui, sans-serif" font-size="12px" x="574" y="334">Local</text></g><line stroke="#CBD5E1" stroke-width="2" x1="580" x2="600" y1="220" y2="240" /><line stroke="#CBD5E1" stroke-width="2" x1="600" x2="620" y1="280" y2="300" /><g><ellipse cx="382" cy="414" fill="#E2E8F0" rx="30" ry="7" /><rect fill="#E2E8F0" height="56" width="60" x="352" y="414" /><rect fill="#DBEAFE" height="56" width="60" x="350" y="412" /><line stroke="#3B82F6" stroke-width="2" x1="350" x2="350" y1="412" y2="468" /><line stroke="#3B82F6" stroke-width="2" x1="410" x2="410" y1="412" y2="468" /><ellipse cx="380" cy="412" fill="#DBEAFE" rx="30" ry="7" stroke="#3B82F6" stroke-width="2" /><ellipse cx="380" cy="468" fill="#DBEAFE" rx="30" ry="7" stroke="#3B82F6" stroke-width="2" /><text fill="#1E293B" font-family="system-ui, sans-serif" font-size="14px" font-weight="600" x="340" y="495">RDS-viaSport</text></g><g><rect fill="#E2E8F0" height="40" rx="6" ry="6" width="120" x="482" y="402" /><rect fill="#DBEAFE" height="40" rx="6" ry="6" stroke="#3B82F6" stroke-width="2" width="120" x="480" y="400" /><rect fill="#3B82F6" height="28" width="4" x="480" y="406" /><text fill="#1E293B" font-family="system-ui, -apple-system, sans-serif" font-size="14px" font-weight="600" x="494" y="418">S3-viaSport</text><text fill="#64748B" font-family="system-ui, sans-serif" font-size="12px" x="494" y="434">Files</text></g><rect fill="#D1FAE5" height="300" rx="12" ry="12" stroke="#10B981" stroke-dasharray="8,4" stroke-width="2" width="250" x="760" y="80" /><rect fill="#10B981" height="22" rx="4" ry="4" width="100" x="770" y="68" /><text fill="white" font-family="monospace" font-size="11px" font-weight="600" x="780" y="84">Quadball CA</text><text fill="#10B981" font-family="system-ui, sans-serif" font-size="16px" font-weight="700" x="780" y="120">Quadball Canada</text><text fill="#64748B" font-family="system-ui, sans-serif" font-size="11px" x="780" y="140">Separate AWS account</text><g><rect fill="#E2E8F0" height="40" rx="6" ry="6" width="120" x="782" y="162" /><rect fill="#D1FAE5" height="40" rx="6" ry="6" stroke="#10B981" stroke-width="2" width="120" x="780" y="160" /><rect fill="#10B981" height="28" width="4" x="780" y="166" /><text fill="#1E293B" font-family="system-ui, -apple-system, sans-serif" font-size="14px" font-weight="600" x="794" y="178">QC Hierarchy</text><text fill="#64748B" font-family="system-ui, sans-serif" font-size="12px" x="794" y="194">Full tree</text></g><g><ellipse cx="842" cy="258" fill="#E2E8F0" rx="25" ry="6" /><rect fill="#E2E8F0" height="48" width="50" x="817" y="258" /><rect fill="#D1FAE5" height="48" width="50" x="815" y="256" /><line stroke="#10B981" stroke-width="2" x1="815" x2="815" y1="256" y2="304" /><line stroke="#10B981" stroke-width="2" x1="865" x2="865" y1="256" y2="304" /><ellipse cx="840" cy="256" fill="#D1FAE5" rx="25" ry="6" stroke="#10B981" stroke-width="2" /><ellipse cx="840" cy="304" fill="#D1FAE5" rx="25" ry="6" stroke="#10B981" stroke-width="2" /><text fill="#1E293B" font-family="system-ui, sans-serif" font-size="14px" font-weight="600" x="800" y="330">RDS-QC</text></g><g><rect fill="#E2E8F0" height="35" rx="6" ry="6" width="90" x="902" y="242" /><rect fill="#D1FAE5" height="35" rx="6" ry="6" stroke="#10B981" stroke-width="2" width="90" x="900" y="240" /><rect fill="#10B981" height="23" width="4" x="900" y="246" /><text fill="#1E293B" font-family="system-ui, -apple-system, sans-serif" font-size="14px" font-weight="600" x="914" y="255">S3-QC</text><text fill="#64748B" font-family="system-ui, sans-serif" font-size="12px" x="914" y="271">Files</text></g><rect fill="#FEF2F2" height="150" rx="8" ry="8" stroke="#EF4444" stroke-width="2" width="250" x="760" y="420" /><text fill="#B91C1C" font-family="system-ui, sans-serif" font-size="12px" font-weight="600" x="780" y="445">Isolation Guarantees</text><text fill="#1E293B" font-family="system-ui, sans-serif" font-size="11px" x="780" y="470">• Data segregation</text><text fill="#1E293B" font-family="system-ui, sans-serif" font-size="11px" x="780" y="492">• Separate KMS keys</text><text fill="#1E293B" font-family="system-ui, sans-serif" font-size="11px" x="780" y="514">• Independent backup</text><text fill="#1E293B" font-family="system-ui, sans-serif" font-size="11px" x="780" y="536">• No cross-tenant access</text><g><line marker-end="url(#arrow_240_140_280_140)" stroke="#CBD5E1" stroke-width="2" x1="240" x2="280" y1="140" y2="140" /></g><g><line marker-end="url(#arrow_240_170_760_170)" stroke="#CBD5E1" stroke-width="2" x1="240" x2="760" y1="170" y2="170" /></g><text fill="#94A3B8" font-family="monospace" font-size="10px" x="40" y="680">Single codebase · Complete tenant isolation</text></svg>