<?xml version="1.0" encoding="utf-8" ?>
<svg baseProfile="full" height="600px" version="1.1" width="1200px" xmlns="http://www.w3.org/2000/svg" xmlns:ev="http://www.w3.org/2001/xml-events" xmlns:xlink="http://www.w3.org/1999/xlink"><defs><marker id="arrow_260_160_300_160" markerHeight="10" markerWidth="10" orient="auto" refX="10" refY="5"><path d="M0,0 L10,5 L0,10 Z" fill="#CBD5E1" /></marker><marker id="arrow_poly_1" markerHeight="10" markerWidth="10" orient="auto" refX="10" refY="5"><path d="M0,0 L10,5 L0,10 Z" fill="#CBD5E1" /></marker><marker id="arrow_poly_2" markerHeight="10" markerWidth="10" orient="auto" refX="10" refY="5"><path d="M0,0 L10,5 L0,10 Z" fill="#CBD5E1" /></marker></defs><rect fill="#FAFBFC" height="100%" width="100%" x="0" y="0" /><text fill="#1E293B" font-family="system-ui, sans-serif" font-size="24px" font-weight="700" x="40" y="35">Multi-Tenant Architecture</text><text fill="#64748B" font-family="system-ui, sans-serif" font-size="14px" x="40" y="55">Tenant Isolation · Organization Hierarchy · Data Segregation</text><rect fill="#F1F5F9" height="180" rx="10" ry="10" stroke="#1E293B" stroke-width="2" width="220" x="40" y="80" /><text fill="#1E293B" font-family="system-ui, sans-serif" font-size="14px" font-weight="600" x="55" y="105">Solstice Platform</text><text fill="#64748B" font-family="system-ui, sans-serif" font-size="11px" x="55" y="125">Single codebase</text><g><rect fill="#E2E8F0" height="40" rx="6" ry="6" width="180" x="57" y="142" /><rect fill="#F8FAFC" height="40" rx="6" ry="6" stroke="#64748B" stroke-width="2" width="180" x="55" y="140" /><rect fill="#64748B" height="28" width="4" x="55" y="146" /><text fill="#1E293B" font-family="system-ui, -apple-system, sans-serif" font-size="13px" font-weight="600" x="69" y="158">Tenant Router</text><text fill="#64748B" font-family="system-ui, sans-serif" font-size="11px" x="69" y="172">TENANT_KEY</text></g><g><rect fill="#E2E8F0" height="40" rx="6" ry="6" width="180" x="57" y="192" /><rect fill="#ECFEFF" height="40" rx="6" ry="6" stroke="#06B6D4" stroke-width="2" width="180" x="55" y="190" /><rect fill="#06B6D4" height="28" width="4" x="55" y="196" /><text fill="#1E293B" font-family="system-ui, -apple-system, sans-serif" font-size="13px" font-weight="600" x="69" y="208">Redis</text><text fill="#64748B" font-family="system-ui, sans-serif" font-size="11px" x="69" y="222">sin:{stage}:* prefix</text></g><rect fill="#DBEAFE" height="420" rx="12" ry="12" stroke="#3B82F6" stroke-dasharray="8,4" stroke-width="2" width="420" x="300" y="80" /><rect fill="#3B82F6" height="22" rx="4" ry="4" width="100" x="310" y="68" /><text fill="white" font-family="monospace" font-size="11px" font-weight="600" x="325" y="84">viaSport</text><text fill="#3B82F6" font-family="system-ui, sans-serif" font-size="16px" font-weight="700" x="320" y="118">viaSport BC</text><rect fill="white" height="130" rx="6" ry="6" stroke="#3B82F6" stroke-width="1" width="180" x="320" y="140" /><text fill="#1E293B" font-family="system-ui, sans-serif" font-size="12px" font-weight="600" x="335" y="163">RBAC Roles</text><rect fill="#1E40AF" height="16" rx="3" ry="3" width="55" x="335" y="175" /><text fill="white" font-family="monospace" font-size="9px" x="343" y="187">Owner</text><rect fill="#3B82F6" height="16" rx="3" ry="3" width="55" x="335" y="197" /><text fill="white" font-family="monospace" font-size="9px" x="343" y="209">Admin</text><rect fill="#60A5FA" height="16" rx="3" ry="3" width="55" x="335" y="219" /><text fill="white" font-family="monospace" font-size="9px" x="343" y="231">Reporter</text><rect fill="#93C5FD" height="16" rx="3" ry="3" width="55" x="335" y="241" /><text fill="white" font-family="monospace" font-size="9px" x="343" y="253">Viewer</text><text fill="#1E293B" font-family="system-ui, sans-serif" font-size="11px" font-weight="600" x="520" y="155">Organization Hierarchy</text><g><rect fill="#E2E8F0" height="35" rx="6" ry="6" width="110" x="522" y="172" /><rect fill="#DBEAFE" height="35" rx="6" ry="6" stroke="#3B82F6" stroke-width="2" width="110" x="520" y="170" /><rect fill="#3B82F6" height="23" width="4" x="520" y="176" /><text fill="#1E293B" font-family="system-ui, -apple-system, sans-serif" font-size="13px" font-weight="600" x="534" y="185">Gov Body</text><text fill="#64748B" font-family="system-ui, sans-serif" font-size="11px" x="534" y="199">Top-level</text></g><g><rect fill="#E2E8F0" height="35" rx="6" ry="6" width="110" x="542" y="222" /><rect fill="#ECFDF5" height="35" rx="6" ry="6" stroke="#10B981" stroke-width="2" width="110" x="540" y="220" /><rect fill="#10B981" height="23" width="4" x="540" y="226" /><text fill="#1E293B" font-family="system-ui, -apple-system, sans-serif" font-size="13px" font-weight="600" x="554" y="235">PSO</text><text fill="#64748B" font-family="system-ui, sans-serif" font-size="11px" x="554" y="249">Provincial</text></g><g><rect fill="#E2E8F0" height="35" rx="6" ry="6" width="110" x="562" y="272" /><rect fill="#FFFBEB" height="35" rx="6" ry="6" stroke="#F59E0B" stroke-width="2" width="110" x="560" y="270" /><rect fill="#F59E0B" height="23" width="4" x="560" y="276" /><text fill="#1E293B" font-family="system-ui, -apple-system, sans-serif" font-size="13px" font-weight="600" x="574" y="285">Club</text><text fill="#64748B" font-family="system-ui, sans-serif" font-size="11px" x="574" y="299">Local</text></g><line stroke="#CBD5E1" stroke-width="2" x1="575" x2="595" y1="205" y2="220" /><line stroke="#CBD5E1" stroke-width="2" x1="595" x2="615" y1="255" y2="270" /><g><rect fill="#E2E8F0" height="40" rx="6" ry="6" width="130" x="322" y="332" /><rect fill="#EEF2FF" height="40" rx="6" ry="6" stroke="#6366F1" stroke-width="2" width="130" x="320" y="330" /><rect fill="#6366F1" height="28" width="4" x="320" y="336" /><text fill="#1E293B" font-family="system-ui, -apple-system, sans-serif" font-size="13px" font-weight="600" x="334" y="348">S3-viaSport</text><text fill="#64748B" font-family="system-ui, sans-serif" font-size="11px" x="334" y="362">Object Lock</text></g><g><ellipse cx="542" cy="341" fill="#E2E8F0" rx="27" ry="6" /><rect fill="#E2E8F0" height="52" width="55" x="515" y="341" /><rect fill="#DBEAFE" height="52" width="55" x="513" y="339" /><line stroke="#3B82F6" stroke-width="2" x1="513" x2="513" y1="339" y2="391" /><line stroke="#3B82F6" stroke-width="2" x1="567" x2="567" y1="339" y2="391" /><ellipse cx="540" cy="339" fill="#DBEAFE" rx="27" ry="6" stroke="#3B82F6" stroke-width="2" /><ellipse cx="540" cy="391" fill="#DBEAFE" rx="27" ry="6" stroke="#3B82F6" stroke-width="2" /><text fill="#1E293B" font-family="system-ui, sans-serif" font-size="12px" font-weight="600" x="505" y="415">RDS-viaSport</text></g><g><rect fill="#E2E8F0" height="40" rx="6" ry="6" width="130" x="322" y="392" /><rect fill="#FFF7ED" height="40" rx="6" ry="6" stroke="#F97316" stroke-width="2" width="130" x="320" y="390" /><rect fill="#F97316" height="28" width="4" x="320" y="396" /><text fill="#1E293B" font-family="system-ui, -apple-system, sans-serif" font-size="13px" font-weight="600" x="334" y="408">ECS Batch</text><text fill="#64748B" font-family="system-ui, sans-serif" font-size="11px" x="334" y="422">Isolated tasks</text></g><rect fill="#D1FAE5" height="220" rx="12" ry="12" stroke="#10B981" stroke-dasharray="8,4" stroke-width="2" width="200" x="760" y="80" /><rect fill="#10B981" height="22" rx="4" ry="4" width="110" x="770" y="68" /><text fill="white" font-family="monospace" font-size="10px" font-weight="600" x="780" y="84">Partner A</text><text fill="#10B981" font-family="system-ui, sans-serif" font-size="14px" font-weight="700" x="775" y="118">Partner Org A</text><text fill="#64748B" font-family="system-ui, sans-serif" font-size="10px" x="775" y="138">Isolated tenant</text><g><rect fill="#E2E8F0" height="35" rx="6" ry="6" width="120" x="777" y="152" /><rect fill="#D1FAE5" height="35" rx="6" ry="6" stroke="#10B981" stroke-width="2" width="120" x="775" y="150" /><rect fill="#10B981" height="23" width="4" x="775" y="156" /><text fill="#1E293B" font-family="system-ui, -apple-system, sans-serif" font-size="13px" font-weight="600" x="789" y="165">Org Tree</text><text fill="#64748B" font-family="system-ui, sans-serif" font-size="11px" x="789" y="179">Scoped</text></g><g><rect fill="#E2E8F0" height="35" rx="6" ry="6" width="120" x="777" y="197" /><rect fill="#D1FAE5" height="35" rx="6" ry="6" stroke="#10B981" stroke-width="2" width="120" x="775" y="195" /><rect fill="#10B981" height="23" width="4" x="775" y="201" /><text fill="#1E293B" font-family="system-ui, -apple-system, sans-serif" font-size="13px" font-weight="600" x="789" y="210">S3 Buckets</text><text fill="#64748B" font-family="system-ui, sans-serif" font-size="11px" x="789" y="224">Object Lock</text></g><text fill="#94A3B8" font-family="system-ui, sans-serif" font-size="9px" x="775" y="245">Redis: tenant-a:*</text><text fill="#94A3B8" font-family="system-ui, sans-serif" font-size="9px" x="775" y="262">Batch: Isolated tasks</text><rect fill="#D1FAE5" height="220" rx="12" ry="12" stroke="#10B981" stroke-dasharray="8,4" stroke-width="2" width="200" x="980" y="80" /><rect fill="#10B981" height="22" rx="4" ry="4" width="110" x="990" y="68" /><text fill="white" font-family="monospace" font-size="10px" font-weight="600" x="1000" y="84">Partner B</text><text fill="#10B981" font-family="system-ui, sans-serif" font-size="14px" font-weight="700" x="995" y="118">Partner Org B</text><text fill="#64748B" font-family="system-ui, sans-serif" font-size="10px" x="995" y="138">Isolated tenant</text><g><rect fill="#E2E8F0" height="35" rx="6" ry="6" width="120" x="997" y="152" /><rect fill="#D1FAE5" height="35" rx="6" ry="6" stroke="#10B981" stroke-width="2" width="120" x="995" y="150" /><rect fill="#10B981" height="23" width="4" x="995" y="156" /><text fill="#1E293B" font-family="system-ui, -apple-system, sans-serif" font-size="13px" font-weight="600" x="1009" y="165">Org Tree</text><text fill="#64748B" font-family="system-ui, sans-serif" font-size="11px" x="1009" y="179">Scoped</text></g><g><rect fill="#E2E8F0" height="35" rx="6" ry="6" width="120" x="997" y="197" /><rect fill="#D1FAE5" height="35" rx="6" ry="6" stroke="#10B981" stroke-width="2" width="120" x="995" y="195" /><rect fill="#10B981" height="23" width="4" x="995" y="201" /><text fill="#1E293B" font-family="system-ui, -apple-system, sans-serif" font-size="13px" font-weight="600" x="1009" y="210">S3 Buckets</text><text fill="#64748B" font-family="system-ui, sans-serif" font-size="11px" x="1009" y="224">Object Lock</text></g><text fill="#94A3B8" font-family="system-ui, sans-serif" font-size="9px" x="995" y="245">Redis: tenant-b:*</text><text fill="#94A3B8" font-family="system-ui, sans-serif" font-size="9px" x="995" y="262">Batch: Isolated tasks</text><rect fill="#FEF2F2" height="130" rx="8" ry="8" stroke="#EF4444" stroke-width="2" width="260" x="760" y="360" /><text fill="#B91C1C" font-family="system-ui, sans-serif" font-size="11px" font-weight="600" x="775" y="385">Tenant Isolation Guarantees</text><text fill="#1E293B" font-family="system-ui, sans-serif" font-size="10px" x="775" y="405">• Complete data segregation</text><text fill="#1E293B" font-family="system-ui, sans-serif" font-size="10px" x="775" y="423">• Redis key prefixing (tenant-id:*)</text><text fill="#1E293B" font-family="system-ui, sans-serif" font-size="10px" x="775" y="441">• S3 buckets with Object Lock</text><text fill="#1E293B" font-family="system-ui, sans-serif" font-size="10px" x="775" y="459">• Isolated ECS batch tasks</text><text fill="#1E293B" font-family="system-ui, sans-serif" font-size="10px" x="775" y="477">• Separate KMS encryption keys</text><g><line marker-end="url(#arrow_260_160_300_160)" stroke="#CBD5E1" stroke-width="2" x1="260" x2="300" y1="160" y2="160" /></g><g><polyline fill="none" marker-end="url(#arrow_poly_1)" points="260,200 260,60 745,60 745,180 760,180" stroke="#CBD5E1" stroke-width="2" /></g><g><polyline fill="none" marker-end="url(#arrow_poly_2)" points="260,220 260,60 965,60 965,180 980,180" stroke="#CBD5E1" stroke-width="2" /></g><text fill="#94A3B8" font-family="monospace" font-size="10px" x="40" y="580">Single codebase · Complete tenant isolation · Redis prefixing</text></svg>