<?xml version="1.0" encoding="utf-8" ?>
<svg baseProfile="full" height="700px" version="1.1" width="1200px" xmlns="http://www.w3.org/2000/svg" xmlns:ev="http://www.w3.org/2001/xml-events" xmlns:xlink="http://www.w3.org/1999/xlink"><defs /><rect fill="#FAFBFC" height="100%" width="100%" x="0" y="0" /><text fill="#1E293B" font-family="system-ui, sans-serif" font-size="24px" font-weight="700" x="40" y="35">Security Architecture v3</text><text fill="#64748B" font-family="system-ui, sans-serif" font-size="14px" x="40" y="55">Defense in Depth · AWS ca-central-1 · PIPEDA Compliant</text><rect fill="white" height="130" rx="8" ry="8" stroke="#3B82F6" stroke-width="2" width="360" x="40" y="80" /><rect fill="#3B82F6" height="20" rx="4" ry="4" width="100" x="50" y="68" /><text fill="white" font-family="monospace" font-size="9px" font-weight="600" x="58" y="82">EDGE SECURITY</text><g><rect fill="#E2E8F0" height="40" rx="6" ry="6" width="100" x="57" y="102" /><rect fill="#EFF6FF" height="40" rx="6" ry="6" stroke="#3B82F6" stroke-width="2" width="100" x="55" y="100" /><rect fill="#3B82F6" height="28" width="4" x="55" y="106" /><text fill="#1E293B" font-family="system-ui, -apple-system, sans-serif" font-size="13px" font-weight="600" x="69" y="118">WAF v2</text><text fill="#64748B" font-family="system-ui, sans-serif" font-size="11px" x="69" y="132">Managed</text></g><g><rect fill="#E2E8F0" height="40" rx="6" ry="6" width="100" x="167" y="102" /><rect fill="#EFF6FF" height="40" rx="6" ry="6" stroke="#3B82F6" stroke-width="2" width="100" x="165" y="100" /><rect fill="#3B82F6" height="28" width="4" x="165" y="106" /><text fill="#1E293B" font-family="system-ui, -apple-system, sans-serif" font-size="13px" font-weight="600" x="179" y="118">CloudFront</text><text fill="#64748B" font-family="system-ui, sans-serif" font-size="11px" x="179" y="132">CDN</text></g><g><rect fill="#E2E8F0" height="40" rx="6" ry="6" width="110" x="277" y="102" /><rect fill="#ECFEFF" height="40" rx="6" ry="6" stroke="#06B6D4" stroke-width="2" width="110" x="275" y="100" /><rect fill="#06B6D4" height="28" width="4" x="275" y="106" /><text fill="#1E293B" font-family="system-ui, -apple-system, sans-serif" font-size="13px" font-weight="600" x="289" y="118">Redis Rate Limit</text><text fill="#64748B" font-family="system-ui, sans-serif" font-size="11px" x="289" y="132">Per-IP</text></g><text fill="#94A3B8" font-family="system-ui, sans-serif" font-size="9px" x="55" y="165">Security Headers: HSTS, CSP, COOP, X-Frame-Options</text><rect fill="white" height="140" rx="8" ry="8" stroke="#10B981" stroke-width="2" width="360" x="40" y="230" /><rect fill="#10B981" height="20" rx="4" ry="4" width="110" x="50" y="218" /><text fill="white" font-family="monospace" font-size="9px" font-weight="600" x="58" y="232">AUTHENTICATION</text><g><rect fill="#E2E8F0" height="40" rx="6" ry="6" width="100" x="57" y="252" /><rect fill="#ECFDF5" height="40" rx="6" ry="6" stroke="#10B981" stroke-width="2" width="100" x="55" y="250" /><rect fill="#10B981" height="28" width="4" x="55" y="256" /><text fill="#1E293B" font-family="system-ui, -apple-system, sans-serif" font-size="13px" font-weight="600" x="69" y="268">Better Auth</text><text fill="#64748B" font-family="system-ui, sans-serif" font-size="11px" x="69" y="282">Sessions</text></g><g><rect fill="#E2E8F0" height="40" rx="6" ry="6" width="100" x="167" y="252" /><rect fill="#ECFDF5" height="40" rx="6" ry="6" stroke="#10B981" stroke-width="2" width="100" x="165" y="250" /><rect fill="#10B981" height="28" width="4" x="165" y="256" /><text fill="#1E293B" font-family="system-ui, -apple-system, sans-serif" font-size="13px" font-weight="600" x="179" y="268">TOTP MFA</text><text fill="#64748B" font-family="system-ui, sans-serif" font-size="11px" x="179" y="282">TOTP+Backup</text></g><g><rect fill="#E2E8F0" height="40" rx="6" ry="6" width="110" x="277" y="252" /><rect fill="#ECFDF5" height="40" rx="6" ry="6" stroke="#10B981" stroke-width="2" width="110" x="275" y="250" /><rect fill="#10B981" height="28" width="4" x="275" y="256" /><text fill="#1E293B" font-family="system-ui, -apple-system, sans-serif" font-size="13px" font-weight="600" x="289" y="268">Account Lockout</text><text fill="#64748B" font-family="system-ui, sans-serif" font-size="11px" x="289" y="282">5 attempts</text></g><g><rect fill="#E2E8F0" height="40" rx="6" ry="6" width="100" x="57" y="302" /><rect fill="#ECFDF5" height="40" rx="6" ry="6" stroke="#10B981" stroke-width="2" width="100" x="55" y="300" /><rect fill="#10B981" height="28" width="4" x="55" y="306" /><text fill="#1E293B" font-family="system-ui, -apple-system, sans-serif" font-size="13px" font-weight="600" x="69" y="318">Session Tokens</text><text fill="#64748B" font-family="system-ui, sans-serif" font-size="11px" x="69" y="332">HttpOnly</text></g><g><rect fill="#E2E8F0" height="40" rx="6" ry="6" width="100" x="167" y="302" /><rect fill="#ECFDF5" height="40" rx="6" ry="6" stroke="#10B981" stroke-width="2" width="100" x="165" y="300" /><rect fill="#10B981" height="28" width="4" x="165" y="306" /><text fill="#1E293B" font-family="system-ui, -apple-system, sans-serif" font-size="13px" font-weight="600" x="179" y="318">Passkeys</text><text fill="#64748B" font-family="system-ui, sans-serif" font-size="11px" x="179" y="332">WebAuthn</text></g><rect fill="white" height="130" rx="8" ry="8" stroke="#8B5CF6" stroke-width="2" width="360" x="420" y="80" /><rect fill="#8B5CF6" height="20" rx="4" ry="4" width="110" x="430" y="68" /><text fill="white" font-family="monospace" font-size="9px" font-weight="600" x="438" y="82">AUTHORIZATION</text><g><rect fill="#E2E8F0" height="40" rx="6" ry="6" width="100" x="437" y="102" /><rect fill="#F5F3FF" height="40" rx="6" ry="6" stroke="#8B5CF6" stroke-width="2" width="100" x="435" y="100" /><rect fill="#8B5CF6" height="28" width="4" x="435" y="106" /><text fill="#1E293B" font-family="system-ui, -apple-system, sans-serif" font-size="13px" font-weight="600" x="449" y="118">RBAC</text><text fill="#64748B" font-family="system-ui, sans-serif" font-size="11px" x="449" y="132">Role-based</text></g><g><rect fill="#E2E8F0" height="40" rx="6" ry="6" width="100" x="547" y="102" /><rect fill="#F5F3FF" height="40" rx="6" ry="6" stroke="#8B5CF6" stroke-width="2" width="100" x="545" y="100" /><rect fill="#8B5CF6" height="28" width="4" x="545" y="106" /><text fill="#1E293B" font-family="system-ui, -apple-system, sans-serif" font-size="13px" font-weight="600" x="559" y="118">Org Scoping</text><text fill="#64748B" font-family="system-ui, sans-serif" font-size="11px" x="559" y="132">Isolation</text></g><g><rect fill="#E2E8F0" height="40" rx="6" ry="6" width="110" x="657" y="102" /><rect fill="#F5F3FF" height="40" rx="6" ry="6" stroke="#8B5CF6" stroke-width="2" width="110" x="655" y="100" /><rect fill="#8B5CF6" height="28" width="4" x="655" y="106" /><text fill="#1E293B" font-family="system-ui, -apple-system, sans-serif" font-size="13px" font-weight="600" x="669" y="118">Field Perms</text><text fill="#64748B" font-family="system-ui, sans-serif" font-size="11px" x="669" y="132">Masking</text></g><text fill="#94A3B8" font-family="system-ui, sans-serif" font-size="9px" x="435" y="165">Roles: Owner, Admin, Reporter, Viewer</text><rect fill="white" height="140" rx="8" ry="8" stroke="#F59E0B" stroke-width="2" width="360" x="420" y="230" /><rect fill="#F59E0B" height="20" rx="4" ry="4" width="110" x="430" y="218" /><text fill="white" font-family="monospace" font-size="9px" font-weight="600" x="438" y="232">DATA PROTECTION</text><g><rect fill="#E2E8F0" height="40" rx="6" ry="6" width="100" x="437" y="252" /><rect fill="#FFFBEB" height="40" rx="6" ry="6" stroke="#F59E0B" stroke-width="2" width="100" x="435" y="250" /><rect fill="#F59E0B" height="28" width="4" x="435" y="256" /><text fill="#1E293B" font-family="system-ui, -apple-system, sans-serif" font-size="13px" font-weight="600" x="449" y="268">RDS PostgreSQL</text><text fill="#64748B" font-family="system-ui, sans-serif" font-size="11px" x="449" y="282">16.11</text></g><g><rect fill="#E2E8F0" height="40" rx="6" ry="6" width="100" x="547" y="252" /><rect fill="#EEF2FF" height="40" rx="6" ry="6" stroke="#6366F1" stroke-width="2" width="100" x="545" y="250" /><rect fill="#6366F1" height="28" width="4" x="545" y="256" /><text fill="#1E293B" font-family="system-ui, -apple-system, sans-serif" font-size="13px" font-weight="600" x="559" y="268">S3 Object Lock</text><text fill="#64748B" font-family="system-ui, sans-serif" font-size="11px" x="559" y="282">Immutable</text></g><g><rect fill="#E2E8F0" height="40" rx="6" ry="6" width="110" x="657" y="252" /><rect fill="#EEF2FF" height="40" rx="6" ry="6" stroke="#6366F1" stroke-width="2" width="110" x="655" y="250" /><rect fill="#6366F1" height="28" width="4" x="655" y="256" /><text fill="#1E293B" font-family="system-ui, -apple-system, sans-serif" font-size="13px" font-weight="600" x="669" y="268">WORM Archive</text><text fill="#64748B" font-family="system-ui, sans-serif" font-size="11px" x="669" y="282">7yr retention</text></g><g><rect fill="#E2E8F0" height="40" rx="6" ry="6" width="100" x="437" y="302" /><rect fill="#FFFBEB" height="40" rx="6" ry="6" stroke="#F59E0B" stroke-width="2" width="100" x="435" y="300" /><rect fill="#F59E0B" height="28" width="4" x="435" y="306" /><text fill="#1E293B" font-family="system-ui, -apple-system, sans-serif" font-size="13px" font-weight="600" x="449" y="318">VPC Isolation</text><text fill="#64748B" font-family="system-ui, sans-serif" font-size="11px" x="449" y="332">Private</text></g><g><rect fill="#E2E8F0" height="40" rx="6" ry="6" width="100" x="547" y="302" /><rect fill="#FFFBEB" height="40" rx="6" ry="6" stroke="#F59E0B" stroke-width="2" width="100" x="545" y="300" /><rect fill="#F59E0B" height="28" width="4" x="545" y="306" /><text fill="#1E293B" font-family="system-ui, -apple-system, sans-serif" font-size="13px" font-weight="600" x="559" y="318">Legal Holds</text><text fill="#64748B" font-family="system-ui, sans-serif" font-size="11px" x="559" y="332">Compliance</text></g><text fill="#94A3B8" font-family="system-ui, sans-serif" font-size="9px" x="435" y="360">Canadian data residency: ca-central-1 only</text><rect fill="white" height="130" rx="8" ry="8" stroke="#06B6D4" stroke-width="2" width="360" x="800" y="80" /><rect fill="#06B6D4" height="20" rx="4" ry="4" width="90" x="810" y="68" /><text fill="white" font-family="monospace" font-size="9px" font-weight="600" x="820" y="82">ENCRYPTION</text><g><rect fill="#E2E8F0" height="40" rx="6" ry="6" width="100" x="817" y="102" /><rect fill="#ECFEFF" height="40" rx="6" ry="6" stroke="#06B6D4" stroke-width="2" width="100" x="815" y="100" /><rect fill="#06B6D4" height="28" width="4" x="815" y="106" /><text fill="#1E293B" font-family="system-ui, -apple-system, sans-serif" font-size="13px" font-weight="600" x="829" y="118">AWS KMS</text><text fill="#64748B" font-family="system-ui, sans-serif" font-size="11px" x="829" y="132">Key mgmt</text></g><g><rect fill="#E2E8F0" height="40" rx="6" ry="6" width="100" x="927" y="102" /><rect fill="#ECFEFF" height="40" rx="6" ry="6" stroke="#06B6D4" stroke-width="2" width="100" x="925" y="100" /><rect fill="#06B6D4" height="28" width="4" x="925" y="106" /><text fill="#1E293B" font-family="system-ui, -apple-system, sans-serif" font-size="13px" font-weight="600" x="939" y="118">AES-256</text><text fill="#64748B" font-family="system-ui, sans-serif" font-size="11px" x="939" y="132">At-rest</text></g><g><rect fill="#E2E8F0" height="40" rx="6" ry="6" width="110" x="1037" y="102" /><rect fill="#ECFEFF" height="40" rx="6" ry="6" stroke="#06B6D4" stroke-width="2" width="110" x="1035" y="100" /><rect fill="#06B6D4" height="28" width="4" x="1035" y="106" /><text fill="#1E293B" font-family="system-ui, -apple-system, sans-serif" font-size="13px" font-weight="600" x="1049" y="118">TLS 1.2+</text><text fill="#64748B" font-family="system-ui, sans-serif" font-size="11px" x="1049" y="132">In-transit</text></g><text fill="#94A3B8" font-family="system-ui, sans-serif" font-size="9px" x="815" y="165">Secrets Manager + App-level crypto</text><rect fill="white" height="140" rx="8" ry="8" stroke="#EF4444" stroke-width="2" width="360" x="800" y="230" /><rect fill="#EF4444" height="20" rx="4" ry="4" width="90" x="810" y="218" /><text fill="white" font-family="monospace" font-size="9px" font-weight="600" x="820" y="232">AUDIT TRAIL</text><g><rect fill="#E2E8F0" height="40" rx="6" ry="6" width="100" x="817" y="252" /><rect fill="#FEF2F2" height="40" rx="6" ry="6" stroke="#EF4444" stroke-width="2" width="100" x="815" y="250" /><rect fill="#EF4444" height="28" width="4" x="815" y="256" /><text fill="#1E293B" font-family="system-ui, -apple-system, sans-serif" font-size="13px" font-weight="600" x="829" y="268">Audit Log</text><text fill="#64748B" font-family="system-ui, sans-serif" font-size="11px" x="829" y="282">Hash chain</text></g><g><rect fill="#E2E8F0" height="40" rx="6" ry="6" width="100" x="927" y="252" /><rect fill="#FEF2F2" height="40" rx="6" ry="6" stroke="#EF4444" stroke-width="2" width="100" x="925" y="250" /><rect fill="#EF4444" height="28" width="4" x="925" y="256" /><text fill="#1E293B" font-family="system-ui, -apple-system, sans-serif" font-size="13px" font-weight="600" x="939" y="268">S3 Deep Archive</text><text fill="#64748B" font-family="system-ui, sans-serif" font-size="11px" x="939" y="282">Long-term</text></g><g><rect fill="#E2E8F0" height="40" rx="6" ry="6" width="110" x="1037" y="252" /><rect fill="#FEF2F2" height="40" rx="6" ry="6" stroke="#EF4444" stroke-width="2" width="110" x="1035" y="250" /><rect fill="#EF4444" height="28" width="4" x="1035" y="256" /><text fill="#1E293B" font-family="system-ui, -apple-system, sans-serif" font-size="13px" font-weight="600" x="1049" y="268">Verification API</text><text fill="#64748B" font-family="system-ui, sans-serif" font-size="11px" x="1049" y="282">Integrity</text></g><g><rect fill="#E2E8F0" height="40" rx="6" ry="6" width="100" x="817" y="302" /><rect fill="#FEF2F2" height="40" rx="6" ry="6" stroke="#EF4444" stroke-width="2" width="100" x="815" y="300" /><rect fill="#EF4444" height="28" width="4" x="815" y="306" /><text fill="#1E293B" font-family="system-ui, -apple-system, sans-serif" font-size="13px" font-weight="600" x="829" y="318">Retention Policy</text><text fill="#64748B" font-family="system-ui, sans-serif" font-size="11px" x="829" y="332">Config</text></g><g><rect fill="#E2E8F0" height="40" rx="6" ry="6" width="100" x="927" y="302" /><rect fill="#FEF2F2" height="40" rx="6" ry="6" stroke="#EF4444" stroke-width="2" width="100" x="925" y="300" /><rect fill="#EF4444" height="28" width="4" x="925" y="306" /><text fill="#1E293B" font-family="system-ui, -apple-system, sans-serif" font-size="13px" font-weight="600" x="939" y="318">Export Logs</text><text fill="#64748B" font-family="system-ui, sans-serif" font-size="11px" x="939" y="332">Compliance</text></g><text fill="#94A3B8" font-family="system-ui, sans-serif" font-size="9px" x="815" y="360">SHA-256 hash chain · 7-year WORM compliance</text><rect fill="white" height="100" rx="8" ry="8" stroke="#EC4899" stroke-width="2" width="1120" x="40" y="420" /><rect fill="#EC4899" height="20" rx="4" ry="4" width="150" x="50" y="408" /><text fill="white" font-family="monospace" font-size="9px" font-weight="600" x="58" y="422">SECURITY MONITORING</text><g><rect fill="#E2E8F0" height="40" rx="6" ry="6" width="120" x="57" y="447" /><rect fill="#FDF2F8" height="40" rx="6" ry="6" stroke="#EC4899" stroke-width="2" width="120" x="55" y="445" /><rect fill="#EC4899" height="28" width="4" x="55" y="451" /><text fill="#1E293B" font-family="system-ui, -apple-system, sans-serif" font-size="13px" font-weight="600" x="69" y="463">CloudWatch</text><text fill="#64748B" font-family="system-ui, sans-serif" font-size="11px" x="69" y="477">Dashboard</text></g><g><rect fill="#E2E8F0" height="40" rx="6" ry="6" width="120" x="187" y="447" /><rect fill="#FDF2F8" height="40" rx="6" ry="6" stroke="#EC4899" stroke-width="2" width="120" x="185" y="445" /><rect fill="#EC4899" height="28" width="4" x="185" y="451" /><text fill="#1E293B" font-family="system-ui, -apple-system, sans-serif" font-size="13px" font-weight="600" x="199" y="463">CloudTrail</text><text fill="#64748B" font-family="system-ui, sans-serif" font-size="11px" x="199" y="477">API logs</text></g><g><rect fill="#E2E8F0" height="40" rx="6" ry="6" width="120" x="317" y="447" /><rect fill="#FDF2F8" height="40" rx="6" ry="6" stroke="#EC4899" stroke-width="2" width="120" x="315" y="445" /><rect fill="#EC4899" height="28" width="4" x="315" y="451" /><text fill="#1E293B" font-family="system-ui, -apple-system, sans-serif" font-size="13px" font-weight="600" x="329" y="463">CIS Alarms</text><text fill="#64748B" font-family="system-ui, sans-serif" font-size="11px" x="329" y="477">Benchmark</text></g><g><rect fill="#E2E8F0" height="40" rx="6" ry="6" width="120" x="447" y="447" /><rect fill="#FDF2F8" height="40" rx="6" ry="6" stroke="#EC4899" stroke-width="2" width="120" x="445" y="445" /><rect fill="#EC4899" height="28" width="4" x="445" y="451" /><text fill="#1E293B" font-family="system-ui, -apple-system, sans-serif" font-size="13px" font-weight="600" x="459" y="463">GuardDuty</text><text fill="#64748B" font-family="system-ui, sans-serif" font-size="11px" x="459" y="477">Threats</text></g><g><rect fill="#E2E8F0" height="40" rx="6" ry="6" width="120" x="577" y="447" /><rect fill="#F5F3FF" height="40" rx="6" ry="6" stroke="#8B5CF6" stroke-width="2" width="120" x="575" y="445" /><rect fill="#8B5CF6" height="28" width="4" x="575" y="451" /><text fill="#1E293B" font-family="system-ui, -apple-system, sans-serif" font-size="13px" font-weight="600" x="589" y="463">SNS Alerts</text><text fill="#64748B" font-family="system-ui, sans-serif" font-size="11px" x="589" y="477">Notifications</text></g><g><rect fill="#E2E8F0" height="40" rx="6" ry="6" width="130" x="707" y="447" /><rect fill="#FDF2F8" height="40" rx="6" ry="6" stroke="#EC4899" stroke-width="2" width="130" x="705" y="445" /><rect fill="#EC4899" height="28" width="4" x="705" y="451" /><text fill="#1E293B" font-family="system-ui, -apple-system, sans-serif" font-size="13px" font-weight="600" x="719" y="463">Security Events</text><text fill="#64748B" font-family="system-ui, sans-serif" font-size="11px" x="719" y="477">Real-time</text></g><text fill="#94A3B8" font-family="system-ui, sans-serif" font-size="9px" x="55" y="500">CIS Benchmark alarms: root usage, IAM changes, security group changes</text><text fill="#94A3B8" font-family="monospace" font-size="10px" x="40" y="680">Defense in depth · Zero trust · Canadian data residency</text></svg>