<?xml version="1.0" encoding="utf-8" ?>
<svg baseProfile="full" height="900px" version="1.1" width="1200px" xmlns="http://www.w3.org/2000/svg" xmlns:ev="http://www.w3.org/2001/xml-events" xmlns:xlink="http://www.w3.org/1999/xlink"><defs><marker id="arrow_160_125_200_125" markerHeight="10" markerWidth="10" orient="auto" refX="10" refY="5"><path d="M0,0 L10,5 L0,10 Z" fill="#CBD5E1" /></marker><marker id="arrow_450_125_480_125" markerHeight="10" markerWidth="10" orient="auto" refX="10" refY="5"><path d="M0,0 L10,5 L0,10 Z" fill="#CBD5E1" /></marker><marker id="arrow_540_150_240_200" markerHeight="10" markerWidth="10" orient="auto" refX="10" refY="5"><path d="M0,0 L10,5 L0,10 Z" fill="#CBD5E1" /></marker><marker id="arrow_600_150_680_200" markerHeight="10" markerWidth="10" orient="auto" refX="10" refY="5"><path d="M0,0 L10,5 L0,10 Z" fill="#CBD5E1" /></marker><marker id="arrow_440_290_480_290" markerHeight="10" markerWidth="10" orient="auto" refX="10" refY="5"><path d="M0,0 L10,5 L0,10 Z" fill="#CBD5E1" /></marker></defs><rect fill="#FAFBFC" height="100%" width="100%" x="0" y="0" /><text fill="#1E293B" font-family="system-ui, sans-serif" font-size="24px" font-weight="700" x="40" y="35">Security Architecture</text><text fill="#64748B" font-family="system-ui, sans-serif" font-size="14px" x="40" y="55">Defense in Depth · Zero Trust Principles</text><g><rect fill="#E2E8F0" height="50" rx="6" ry="6" width="120" x="42" y="102" /><rect fill="#F1F5F9" height="50" rx="6" ry="6" stroke="#1E293B" stroke-width="2" width="120" x="40" y="100" /><rect fill="#1E293B" height="38" width="4" x="40" y="106" /><text fill="#1E293B" font-family="system-ui, -apple-system, sans-serif" font-size="14px" font-weight="600" x="54" y="123">Users/Admins</text><text fill="#64748B" font-family="system-ui, sans-serif" font-size="12px" x="54" y="139">Browsers</text></g><rect fill="white" height="90" rx="8" ry="8" stroke="#3B82F6" stroke-width="2" width="250" x="200" y="80" /><rect fill="#3B82F6" height="20" rx="4" ry="4" width="80" x="210" y="68" /><text fill="white" font-family="monospace" font-size="10px" font-weight="600" x="225" y="82">EDGE</text><g><rect fill="#E2E8F0" height="45" rx="6" ry="6" width="100" x="217" y="102" /><rect fill="#EFF6FF" height="45" rx="6" ry="6" stroke="#3B82F6" stroke-width="2" width="100" x="215" y="100" /><rect fill="#3B82F6" height="33" width="4" x="215" y="106" /><text fill="#1E293B" font-family="system-ui, -apple-system, sans-serif" font-size="14px" font-weight="600" x="229" y="120">WAF</text><text fill="#64748B" font-family="system-ui, sans-serif" font-size="12px" x="229" y="136">Filtering</text></g><g><rect fill="#E2E8F0" height="45" rx="6" ry="6" width="100" x="332" y="102" /><rect fill="#EFF6FF" height="45" rx="6" ry="6" stroke="#3B82F6" stroke-width="2" width="100" x="330" y="100" /><rect fill="#3B82F6" height="33" width="4" x="330" y="106" /><text fill="#1E293B" font-family="system-ui, -apple-system, sans-serif" font-size="14px" font-weight="600" x="344" y="120">CloudFront</text><text fill="#64748B" font-family="system-ui, sans-serif" font-size="12px" x="344" y="136">DDoS</text></g><rect fill="#059669" height="16" rx="3" ry="3" width="30" x="165" y="110" /><text fill="white" font-family="monospace" font-size="9px" x="170" y="122">TLS</text><rect fill="white" height="180" rx="8" ry="8" stroke="#8B5CF6" stroke-width="2" width="400" x="40" y="200" /><rect fill="#8B5CF6" height="20" rx="4" ry="4" width="120" x="50" y="188" /><text fill="white" font-family="monospace" font-size="9px" font-weight="600" x="60" y="202">AUTHENTICATION</text><g><rect fill="#E2E8F0" height="45" rx="6" ry="6" width="150" x="62" y="227" /><rect fill="#F5F3FF" height="45" rx="6" ry="6" stroke="#8B5CF6" stroke-width="2" width="150" x="60" y="225" /><rect fill="#8B5CF6" height="33" width="4" x="60" y="231" /><text fill="#1E293B" font-family="system-ui, -apple-system, sans-serif" font-size="14px" font-weight="600" x="74" y="245">Better Auth</text><text fill="#64748B" font-family="system-ui, sans-serif" font-size="12px" x="74" y="261">Identity</text></g><g><rect fill="#E2E8F0" height="45" rx="6" ry="6" width="150" x="232" y="227" /><rect fill="#F5F3FF" height="45" rx="6" ry="6" stroke="#8B5CF6" stroke-width="2" width="150" x="230" y="225" /><rect fill="#8B5CF6" height="33" width="4" x="230" y="231" /><text fill="#1E293B" font-family="system-ui, -apple-system, sans-serif" font-size="14px" font-weight="600" x="244" y="245">MFA</text><text fill="#64748B" font-family="system-ui, sans-serif" font-size="12px" x="244" y="261">TOTP + Backup</text></g><g><rect fill="#E2E8F0" height="45" rx="6" ry="6" width="150" x="62" y="292" /><rect fill="#F5F3FF" height="45" rx="6" ry="6" stroke="#8B5CF6" stroke-width="2" width="150" x="60" y="290" /><rect fill="#8B5CF6" height="33" width="4" x="60" y="296" /><text fill="#1E293B" font-family="system-ui, -apple-system, sans-serif" font-size="14px" font-weight="600" x="74" y="310">Session Tokens</text><text fill="#64748B" font-family="system-ui, sans-serif" font-size="12px" x="74" y="326">Secure cookies</text></g><g><rect fill="#E2E8F0" height="45" rx="6" ry="6" width="150" x="232" y="292" /><rect fill="#F5F3FF" height="45" rx="6" ry="6" stroke="#8B5CF6" stroke-width="2" width="150" x="230" y="290" /><rect fill="#8B5CF6" height="33" width="4" x="230" y="296" /><text fill="#1E293B" font-family="system-ui, -apple-system, sans-serif" font-size="14px" font-weight="600" x="244" y="310">Account Lockout</text><text fill="#64748B" font-family="system-ui, sans-serif" font-size="12px" x="244" y="326">Brute force</text></g><rect fill="white" height="180" rx="8" ry="8" stroke="#EC4899" stroke-width="2" width="400" x="480" y="200" /><rect fill="#EC4899" height="20" rx="4" ry="4" width="120" x="490" y="188" /><text fill="white" font-family="monospace" font-size="9px" font-weight="600" x="500" y="202">AUTHORIZATION</text><g><rect fill="#E2E8F0" height="45" rx="6" ry="6" width="160" x="502" y="227" /><rect fill="#FDF2F8" height="45" rx="6" ry="6" stroke="#EC4899" stroke-width="2" width="160" x="500" y="225" /><rect fill="#EC4899" height="33" width="4" x="500" y="231" /><text fill="#1E293B" font-family="system-ui, -apple-system, sans-serif" font-size="14px" font-weight="600" x="514" y="245">RBAC</text><text fill="#64748B" font-family="system-ui, sans-serif" font-size="12px" x="514" y="261">Role-based access</text></g><g><rect fill="#E2E8F0" height="45" rx="6" ry="6" width="160" x="682" y="227" /><rect fill="#FDF2F8" height="45" rx="6" ry="6" stroke="#EC4899" stroke-width="2" width="160" x="680" y="225" /><rect fill="#EC4899" height="33" width="4" x="680" y="231" /><text fill="#1E293B" font-family="system-ui, -apple-system, sans-serif" font-size="14px" font-weight="600" x="694" y="245">Org Scoping</text><text fill="#64748B" font-family="system-ui, sans-serif" font-size="12px" x="694" y="261">Data isolation</text></g><g><rect fill="#E2E8F0" height="45" rx="6" ry="6" width="160" x="502" y="292" /><rect fill="#FDF2F8" height="45" rx="6" ry="6" stroke="#EC4899" stroke-width="2" width="160" x="500" y="290" /><rect fill="#EC4899" height="33" width="4" x="500" y="296" /><text fill="#1E293B" font-family="system-ui, -apple-system, sans-serif" font-size="14px" font-weight="600" x="514" y="310">Feature Gates</text><text fill="#64748B" font-family="system-ui, sans-serif" font-size="12px" x="514" y="326">Capabilities</text></g><g><rect fill="#E2E8F0" height="45" rx="6" ry="6" width="160" x="682" y="292" /><rect fill="#FDF2F8" height="45" rx="6" ry="6" stroke="#EC4899" stroke-width="2" width="160" x="680" y="290" /><rect fill="#EC4899" height="33" width="4" x="680" y="296" /><text fill="#1E293B" font-family="system-ui, -apple-system, sans-serif" font-size="14px" font-weight="600" x="694" y="310">Field Perms</text><text fill="#64748B" font-family="system-ui, sans-serif" font-size="12px" x="694" y="326">Masking</text></g><g><rect fill="#E2E8F0" height="50" rx="6" ry="6" width="120" x="482" y="102" /><rect fill="#ECFDF5" height="50" rx="6" ry="6" stroke="#10B981" stroke-width="2" width="120" x="480" y="100" /><rect fill="#10B981" height="38" width="4" x="480" y="106" /><text fill="#1E293B" font-family="system-ui, -apple-system, sans-serif" font-size="14px" font-weight="600" x="494" y="123">App API</text><text fill="#64748B" font-family="system-ui, sans-serif" font-size="12px" x="494" y="139">Lambda</text></g><rect fill="white" height="150" rx="8" ry="8" stroke="#F59E0B" stroke-width="2" width="400" x="40" y="420" /><rect fill="#F59E0B" height="20" rx="4" ry="4" width="100" x="50" y="408" /><text fill="white" font-family="monospace" font-size="9px" font-weight="600" x="60" y="422">DATA LAYER</text><g><rect fill="#E2E8F0" height="45" rx="6" ry="6" width="150" x="62" y="447" /><rect fill="#FFFBEB" height="45" rx="6" ry="6" stroke="#F59E0B" stroke-width="2" width="150" x="60" y="445" /><rect fill="#F59E0B" height="33" width="4" x="60" y="451" /><text fill="#1E293B" font-family="system-ui, -apple-system, sans-serif" font-size="14px" font-weight="600" x="74" y="465">Data Access</text><text fill="#64748B" font-family="system-ui, sans-serif" font-size="12px" x="74" y="481">Query sanitize</text></g><g><ellipse cx="332" cy="460" fill="#E2E8F0" rx="35" ry="8" /><rect fill="#E2E8F0" height="64" width="70" x="297" y="460" /><rect fill="#FFFBEB" height="64" width="70" x="295" y="458" /><line stroke="#F59E0B" stroke-width="2" x1="295" x2="295" y1="458" y2="522" /><line stroke="#F59E0B" stroke-width="2" x1="365" x2="365" y1="458" y2="522" /><ellipse cx="330" cy="458" fill="#FFFBEB" rx="35" ry="8" stroke="#F59E0B" stroke-width="2" /><ellipse cx="330" cy="522" fill="#FFFBEB" rx="35" ry="8" stroke="#F59E0B" stroke-width="2" /><text fill="#1E293B" font-family="system-ui, sans-serif" font-size="14px" font-weight="600" x="290" y="550">PostgreSQL</text></g><rect fill="white" height="150" rx="8" ry="8" stroke="#10B981" stroke-width="2" width="400" x="480" y="420" /><rect fill="#10B981" height="20" rx="4" ry="4" width="100" x="490" y="408" /><text fill="white" font-family="monospace" font-size="9px" font-weight="600" x="500" y="422">ENCRYPTION</text><g><rect fill="#E2E8F0" height="45" rx="6" ry="6" width="140" x="502" y="447" /><rect fill="#ECFDF5" height="45" rx="6" ry="6" stroke="#10B981" stroke-width="2" width="140" x="500" y="445" /><rect fill="#10B981" height="33" width="4" x="500" y="451" /><text fill="#1E293B" font-family="system-ui, -apple-system, sans-serif" font-size="14px" font-weight="600" x="514" y="465">AWS KMS</text><text fill="#64748B" font-family="system-ui, sans-serif" font-size="12px" x="514" y="481">Key mgmt</text></g><g><rect fill="#E2E8F0" height="45" rx="6" ry="6" width="140" x="662" y="447" /><rect fill="#ECFDF5" height="45" rx="6" ry="6" stroke="#10B981" stroke-width="2" width="140" x="660" y="445" /><rect fill="#10B981" height="33" width="4" x="660" y="451" /><text fill="#1E293B" font-family="system-ui, -apple-system, sans-serif" font-size="14px" font-weight="600" x="674" y="465">AES-256</text><text fill="#64748B" font-family="system-ui, sans-serif" font-size="12px" x="674" y="481">At-rest</text></g><g><rect fill="#E2E8F0" height="45" rx="6" ry="6" width="140" x="502" y="507" /><rect fill="#ECFDF5" height="45" rx="6" ry="6" stroke="#10B981" stroke-width="2" width="140" x="500" y="505" /><rect fill="#10B981" height="33" width="4" x="500" y="511" /><text fill="#1E293B" font-family="system-ui, -apple-system, sans-serif" font-size="14px" font-weight="600" x="514" y="525">TLS 1.2+</text><text fill="#64748B" font-family="system-ui, sans-serif" font-size="12px" x="514" y="541">In-transit</text></g><g><rect fill="#E2E8F0" height="45" rx="6" ry="6" width="140" x="662" y="507" /><rect fill="#ECFDF5" height="45" rx="6" ry="6" stroke="#10B981" stroke-width="2" width="140" x="660" y="505" /><rect fill="#10B981" height="33" width="4" x="660" y="511" /><text fill="#1E293B" font-family="system-ui, -apple-system, sans-serif" font-size="14px" font-weight="600" x="674" y="525">SSM</text><text fill="#64748B" font-family="system-ui, sans-serif" font-size="12px" x="674" y="541">Secrets</text></g><rect fill="white" height="100" rx="8" ry="8" stroke="#EF4444" stroke-width="2" width="400" x="40" y="610" /><rect fill="#EF4444" height="20" rx="4" ry="4" width="100" x="50" y="598" /><text fill="white" font-family="monospace" font-size="9px" font-weight="600" x="60" y="612">AUDIT TRAIL</text><g><rect fill="#E2E8F0" height="45" rx="6" ry="6" width="160" x="62" y="637" /><rect fill="#FEF2F2" height="45" rx="6" ry="6" stroke="#EF4444" stroke-width="2" width="160" x="60" y="635" /><rect fill="#EF4444" height="33" width="4" x="60" y="641" /><text fill="#1E293B" font-family="system-ui, -apple-system, sans-serif" font-size="14px" font-weight="600" x="74" y="655">Audit Log</text><text fill="#64748B" font-family="system-ui, sans-serif" font-size="12px" x="74" y="671">Hash chain</text></g><g><rect fill="#E2E8F0" height="45" rx="6" ry="6" width="160" x="242" y="637" /><rect fill="#FEF2F2" height="45" rx="6" ry="6" stroke="#EF4444" stroke-width="2" width="160" x="240" y="635" /><rect fill="#EF4444" height="33" width="4" x="240" y="641" /><text fill="#1E293B" font-family="system-ui, -apple-system, sans-serif" font-size="14px" font-weight="600" x="254" y="655">Retention</text><text fill="#64748B" font-family="system-ui, sans-serif" font-size="12px" x="254" y="671">Legal holds</text></g><rect fill="white" height="100" rx="8" ry="8" stroke="#64748B" stroke-width="2" width="400" x="480" y="610" /><rect fill="#64748B" height="20" rx="4" ry="4" width="100" x="490" y="598" /><text fill="white" font-family="monospace" font-size="9px" font-weight="600" x="500" y="612">MONITORING</text><g><rect fill="#E2E8F0" height="45" rx="6" ry="6" width="110" x="502" y="637" /><rect fill="#F8FAFC" height="45" rx="6" ry="6" stroke="#64748B" stroke-width="2" width="110" x="500" y="635" /><rect fill="#64748B" height="33" width="4" x="500" y="641" /><text fill="#1E293B" font-family="system-ui, -apple-system, sans-serif" font-size="14px" font-weight="600" x="514" y="655">CloudWatch</text><text fill="#64748B" font-family="system-ui, sans-serif" font-size="12px" x="514" y="671">Logs</text></g><g><rect fill="#E2E8F0" height="45" rx="6" ry="6" width="110" x="627" y="637" /><rect fill="#F8FAFC" height="45" rx="6" ry="6" stroke="#64748B" stroke-width="2" width="110" x="625" y="635" /><rect fill="#64748B" height="33" width="4" x="625" y="641" /><text fill="#1E293B" font-family="system-ui, -apple-system, sans-serif" font-size="14px" font-weight="600" x="639" y="655">CloudTrail</text><text fill="#64748B" font-family="system-ui, sans-serif" font-size="12px" x="639" y="671">API</text></g><g><rect fill="#E2E8F0" height="45" rx="6" ry="6" width="110" x="752" y="637" /><rect fill="#F8FAFC" height="45" rx="6" ry="6" stroke="#64748B" stroke-width="2" width="110" x="750" y="635" /><rect fill="#64748B" height="33" width="4" x="750" y="641" /><text fill="#1E293B" font-family="system-ui, -apple-system, sans-serif" font-size="14px" font-weight="600" x="764" y="655">GuardDuty</text><text fill="#64748B" font-family="system-ui, sans-serif" font-size="12px" x="764" y="671">Threats</text></g><g><line marker-end="url(#arrow_160_125_200_125)" stroke="#CBD5E1" stroke-width="2" x1="160" x2="200" y1="125" y2="125" /></g><g><line marker-end="url(#arrow_450_125_480_125)" stroke="#CBD5E1" stroke-width="2" x1="450" x2="480" y1="125" y2="125" /></g><g><line marker-end="url(#arrow_540_150_240_200)" stroke="#CBD5E1" stroke-width="2" x1="540" x2="240" y1="150" y2="200" /></g><g><line marker-end="url(#arrow_600_150_680_200)" stroke="#CBD5E1" stroke-width="2" x1="600" x2="680" y1="150" y2="200" /></g><g><line marker-end="url(#arrow_440_290_480_290)" stroke="#CBD5E1" stroke-width="2" x1="440" x2="480" y1="290" y2="290" /></g><text fill="#94A3B8" font-family="monospace" font-size="10px" x="40" y="780">PIPEDA Aligned · SOC2 Controls</text></svg>